{"glyphs":{"0":{"ha":897,"x_min":0,"x_max":0,"o":"m 833 494 b 450 1010 833 772 728 1010 b 64 494 171 1010 64 772 b 450 -26 64 215 171 -26 b 833 494 728 -26 833 215 z m 594 494 b 450 174 594 368 572 174 b 303 494 326 174 303 368 b 450 813 303 618 326 813 b 594 494 572 813 594 618 z "},"1":{"ha":897,"x_min":0,"x_max":0,"o":"m 626 0 l 626 983 l 413 983 l 89 746 l 210 581 l 393 722 l 393 0 z "},"2":{"ha":897,"x_min":0,"x_max":0,"o":"m 806 0 l 806 203 l 404 203 l 632 406 b 804 708 722 486 804 568 b 449 1010 804 914 629 1010 b 74 693 257 1010 96 892 l 297 663 b 436 811 307 750 358 811 b 558 693 510 811 558 763 b 478 542 558 633 526 588 l 94 194 l 94 0 z "},"3":{"ha":897,"x_min":0,"x_max":0,"o":"m 810 286 b 621 514 810 396 732 488 l 621 518 b 786 732 717 543 786 624 b 440 1010 786 921 614 1010 b 74 760 276 1010 121 925 l 290 710 b 425 819 306 776 358 819 b 549 711 489 819 549 782 b 376 594 549 617 464 594 l 308 594 l 308 424 l 371 424 b 571 294 468 424 571 394 b 428 169 571 203 494 169 b 261 292 339 169 279 226 l 44 235 b 439 -26 97 51 260 -26 b 810 286 619 -26 810 71 z "},"4":{"ha":897,"x_min":0,"x_max":0,"o":"m 850 192 l 850 381 l 714 381 l 714 983 l 435 983 l 35 388 l 35 192 l 497 192 l 497 0 l 715 0 l 715 192 z m 499 381 l 261 381 l 494 744 l 499 744 z "},"5":{"ha":897,"x_min":0,"x_max":0,"o":"m 808 325 b 453 638 808 532 650 638 b 354 628 424 638 383 635 l 363 783 l 758 783 l 758 983 l 156 983 l 132 421 b 372 464 201 446 303 464 b 574 314 468 464 574 431 b 426 171 574 219 506 171 b 268 289 350 171 289 221 l 56 224 b 429 -26 101 68 250 -26 b 808 325 622 -26 808 86 z "},"6":{"ha":897,"x_min":0,"x_max":0,"o":"m 835 331 b 513 651 835 522 685 651 b 443 640 490 651 461 647 l 447 647 l 689 983 l 407 983 l 169 629 b 60 325 104 532 60 442 b 447 -26 60 110 233 -26 b 835 331 660 -26 835 107 z m 601 325 b 447 168 601 232 539 168 b 293 324 354 168 293 239 b 449 479 293 415 357 479 b 601 325 540 479 601 414 z "},"7":{"ha":897,"x_min":0,"x_max":0,"o":"m 801 797 l 801 983 l 88 983 l 88 783 l 553 783 l 154 0 l 425 0 z "},"8":{"ha":897,"x_min":0,"x_max":0,"o":"m 818 281 b 642 514 818 396 740 486 l 642 518 b 792 733 729 547 792 625 b 449 1010 792 915 629 1010 b 106 729 267 1010 106 911 b 256 517 106 621 171 549 l 256 514 b 79 279 160 483 79 399 b 449 -26 79 72 254 -26 b 818 281 643 -26 818 74 z m 567 717 b 449 600 567 654 517 600 b 332 717 376 600 332 654 b 449 829 332 781 379 829 b 567 717 514 829 567 781 z m 585 289 b 449 158 585 210 529 158 b 311 289 368 158 311 210 b 449 422 311 365 368 422 b 585 289 528 422 585 364 z "},"9":{"ha":897,"x_min":0,"x_max":0,"o":"m 836 658 b 449 1010 836 874 664 1010 b 61 653 236 1010 61 876 b 385 332 61 461 213 332 b 454 343 407 332 435 336 l 451 339 l 207 0 l 489 0 l 726 354 b 836 658 792 451 836 542 z m 603 661 b 447 506 603 569 539 506 b 294 660 356 506 294 571 b 450 818 294 753 357 818 b 603 661 543 818 603 746 z "},"!":{"ha":496,"x_min":0,"x_max":0,"o":"m 364 329 l 364 983 l 131 983 l 131 329 z m 383 118 b 247 249 383 190 322 249 b 113 117 172 249 113 189 b 247 -14 113 43 175 -14 b 383 118 322 -14 383 44 z "},"\"":{"ha":692,"x_min":0,"x_max":0,"o":"m 571 607 l 571 983 l 390 983 l 390 607 z m 301 607 l 301 983 l 119 983 l 119 607 z "},"#":{"ha":838,"x_min":0,"x_max":0,"o":"m 774 561 l 774 706 l 657 706 l 696 983 l 543 983 l 503 706 l 394 706 l 435 983 l 281 983 l 240 706 l 104 706 l 104 561 l 222 561 l 201 422 l 64 422 l 64 278 l 182 278 l 142 0 l 294 0 l 335 278 l 444 278 l 404 0 l 557 0 l 599 278 l 735 278 l 735 422 l 617 422 l 636 561 z m 483 561 l 464 422 l 356 422 l 374 561 z "},"$":{"ha":897,"x_min":0,"x_max":0,"o":"m 500 1092 l 399 1092 l 399 996 b 89 704 253 989 89 886 b 392 414 89 518 232 457 l 392 171 b 194 267 331 172 244 213 b 49 114 147 215 97 164 b 392 -14 140 32 272 -10 l 392 -115 l 494 -115 l 494 -14 b 815 290 657 -8 815 88 b 500 593 815 489 643 550 l 500 815 b 676 740 558 814 631 786 b 811 892 722 790 767 840 b 500 997 725 961 604 994 z m 399 617 b 301 719 340 632 301 661 b 399 818 301 781 349 813 z m 494 389 b 596 278 553 371 596 342 b 494 169 596 214 557 172 z "},"%":{"ha":1265,"x_min":0,"x_max":0,"o":"m 1235 246 b 971 508 1235 392 1117 508 b 707 246 825 508 707 392 b 971 -17 707 100 825 -17 b 1235 246 1117 -17 1235 100 z m 1079 246 b 971 139 1079 186 1029 139 b 863 246 911 139 863 186 b 971 354 863 306 911 354 b 1079 246 1029 354 1079 306 z m 568 738 b 304 1000 568 885 450 1000 b 40 738 158 1000 40 885 b 304 475 40 593 158 475 b 568 738 450 475 568 593 z m 413 738 b 304 631 413 678 364 631 b 196 738 244 631 196 678 b 304 846 196 797 244 846 b 413 738 364 846 413 797 z m 990 965 l 861 1028 l 288 14 l 411 -47 z "},"&":{"ha":1085,"x_min":0,"x_max":0,"o":"m 1083 0 l 839 243 l 1051 528 l 799 528 l 700 376 l 576 503 b 774 760 685 557 774 635 b 474 1010 774 933 624 1010 b 167 760 328 1010 167 938 b 268 546 167 675 207 606 b 63 274 160 499 63 413 b 415 -19 63 74 236 -19 b 703 96 551 -19 640 29 l 796 0 z m 569 753 b 456 625 569 693 518 650 b 382 753 408 664 382 707 b 476 843 382 804 422 843 b 569 753 533 843 569 803 z m 568 235 b 424 160 533 188 485 160 b 290 283 358 160 290 206 b 394 415 290 357 339 393 z "},"’":{"ha":417,"x_min":0,"x_max":0,"o":"m 358 983 l 157 983 l 57 607 l 232 607 z "},"(":{"ha":475,"x_min":0,"x_max":0,"o":"m 400 -154 b 219 400 283 6 219 199 b 400 954 219 601 283 794 l 244 1031 b 40 400 114 850 40 626 b 244 -231 40 174 114 -50 z "},")":{"ha":475,"x_min":0,"x_max":0,"o":"m 435 400 b 231 1031 435 626 361 850 l 75 954 b 256 400 192 794 256 601 b 75 -154 256 199 192 6 l 231 -231 b 435 400 361 -50 435 174 z "},"*":{"ha":679,"x_min":0,"x_max":0,"o":"m 640 719 l 593 858 l 417 803 l 417 983 l 264 983 l 264 803 l 88 864 l 39 725 l 218 665 l 106 521 l 228 433 l 338 579 l 450 428 l 575 515 l 463 664 z "},"+":{"ha":925,"x_min":0,"x_max":0,"o":"m 849 333 l 849 508 l 553 508 l 553 799 l 372 799 l 372 508 l 78 508 l 78 333 l 374 333 l 374 43 l 554 43 l 554 333 z "},",":{"ha":417,"x_min":0,"x_max":0,"o":"m 350 222 l 132 222 l 28 -172 l 215 -172 z "},"-":{"ha":453,"x_min":0,"x_max":0,"o":"m 403 274 l 403 454 l 50 454 l 50 274 z "},".":{"ha":417,"x_min":0,"x_max":0,"o":"m 349 122 b 210 258 349 199 285 258 b 68 121 132 258 68 196 b 210 -14 68 44 133 -14 b 349 122 285 -14 349 46 z "},"/":{"ha":576,"x_min":0,"x_max":0,"o":"m 576 1004 l 419 1058 l -10 -21 l 147 -72 z "},":":{"ha":461,"x_min":0,"x_max":0,"o":"m 367 569 b 232 700 367 642 304 700 b 94 567 157 700 94 640 b 232 436 94 493 158 436 b 367 569 304 436 367 496 z m 367 124 b 232 256 367 197 304 256 b 94 122 157 256 94 196 b 232 -8 94 49 158 -8 b 367 124 304 -8 367 50 z "},";":{"ha":461,"x_min":0,"x_max":0,"o":"m 367 569 b 232 701 367 643 304 701 b 96 568 157 701 96 642 b 232 438 96 494 160 438 b 367 569 306 438 367 496 z m 368 222 l 146 222 l 42 -172 l 233 -172 z "},"<":{"ha":925,"x_min":0,"x_max":0,"o":"m 815 51 l 815 242 l 390 418 l 815 600 l 815 789 l 110 492 l 110 349 z "},"=":{"ha":925,"x_min":0,"x_max":0,"o":"m 831 465 l 831 636 l 94 636 l 94 465 z m 831 208 l 831 379 l 94 379 l 94 208 z "},">":{"ha":925,"x_min":0,"x_max":0,"o":"m 815 349 l 815 492 l 110 789 l 110 600 l 535 418 l 110 242 l 110 51 z "},"?":{"ha":758,"x_min":0,"x_max":0,"o":"m 732 732 b 404 1010 732 925 569 1010 b 56 708 226 1010 76 910 l 276 685 b 396 814 279 751 319 814 b 497 717 458 814 497 775 b 440 618 497 674 472 646 l 394 575 b 285 367 322 511 285 464 l 285 314 l 501 314 l 501 350 b 576 479 501 408 517 432 b 732 732 672 553 732 610 z m 529 118 b 394 249 529 190 468 249 b 258 117 319 249 258 189 b 394 -14 258 43 321 -14 b 529 118 469 -14 529 44 z "},"@":{"ha":1111,"x_min":0,"x_max":0,"o":"m 1075 557 b 575 1008 1075 856 836 1008 b 40 490 281 1008 40 786 b 576 -25 40 189 261 -25 b 999 128 744 -25 892 24 l 911 225 b 592 106 829 150 724 106 b 193 490 358 106 193 254 b 574 882 193 714 347 882 b 933 551 785 882 933 768 b 826 358 933 422 882 358 b 786 408 794 358 786 382 b 804 524 786 436 794 479 l 847 742 l 697 742 l 688 694 l 686 694 b 554 769 674 735 625 769 b 288 457 393 769 288 614 b 488 222 288 319 363 222 b 653 311 571 222 628 268 l 658 311 b 790 222 665 258 717 222 b 1075 557 951 222 1075 344 z m 646 526 b 529 360 646 457 611 360 b 453 457 469 360 453 411 b 568 635 453 539 499 635 b 646 526 631 635 646 582 z "},"A":{"ha":1013,"x_min":0,"x_max":0,"o":"m 1032 0 l 624 983 l 393 983 l -19 0 l 239 0 l 311 193 l 692 193 l 768 0 z m 626 383 l 379 383 l 504 721 z "},"B":{"ha":924,"x_min":0,"x_max":0,"o":"m 868 286 b 667 515 868 415 779 496 l 667 518 b 828 731 763 550 828 622 b 493 983 828 929 646 983 l 101 983 l 101 0 l 493 0 b 868 286 681 0 868 72 z m 599 699 b 458 592 599 629 547 592 l 331 592 l 331 794 l 447 794 b 599 699 547 794 599 765 z m 631 308 b 464 192 631 213 539 192 l 331 192 l 331 417 l 463 417 b 631 308 564 417 631 390 z "},"C":{"ha":967,"x_min":0,"x_max":0,"o":"m 967 136 l 801 292 b 593 192 760 233 686 192 b 314 493 429 192 314 314 b 597 794 314 667 432 794 b 796 704 672 794 751 765 l 957 865 b 589 1010 875 960 726 1010 b 56 493 289 1010 56 808 b 585 -26 56 185 282 -26 b 967 136 750 -26 881 36 z "},"D":{"ha":1075,"x_min":0,"x_max":0,"o":"m 1019 494 b 457 983 1019 867 736 983 l 101 983 l 101 0 l 468 0 b 1019 494 739 0 1019 149 z m 772 494 b 446 206 772 275 615 206 l 333 206 l 333 781 l 451 781 b 772 494 615 781 772 715 z "},"E":{"ha":843,"x_min":0,"x_max":0,"o":"m 788 0 l 788 203 l 331 203 l 331 407 l 739 407 l 739 597 l 331 597 l 331 782 l 763 782 l 763 983 l 101 983 l 101 0 z "},"F":{"ha":800,"x_min":0,"x_max":0,"o":"m 749 781 l 749 983 l 101 983 l 101 0 l 336 0 l 336 382 l 717 382 l 717 578 l 336 578 l 336 781 z "},"G":{"ha":1068,"x_min":0,"x_max":0,"o":"m 975 60 l 975 581 l 569 581 l 569 389 l 757 389 l 757 210 b 608 183 715 192 664 183 b 308 493 415 183 308 313 b 597 800 308 669 431 800 b 818 708 693 800 772 761 l 968 879 b 589 1010 886 958 743 1010 b 56 493 289 1010 56 808 b 596 -25 56 183 282 -25 b 975 60 747 -25 879 10 z "},"H":{"ha":1061,"x_min":0,"x_max":0,"o":"m 960 0 l 960 983 l 722 983 l 722 611 l 339 611 l 339 983 l 101 983 l 101 0 l 339 0 l 339 411 l 722 411 l 722 0 z "},"I":{"ha":442,"x_min":0,"x_max":0,"o":"m 340 0 l 340 983 l 101 983 l 101 0 z "},"J":{"ha":735,"x_min":0,"x_max":0,"o":"m 639 336 l 639 983 l 400 983 l 400 335 b 304 189 400 249 382 189 b 206 275 254 189 218 224 l -4 204 b 315 -26 32 69 150 -26 b 639 336 583 -26 639 181 z "},"K":{"ha":988,"x_min":0,"x_max":0,"o":"m 1013 0 l 564 531 l 988 983 l 690 983 l 339 583 l 335 583 l 335 983 l 101 983 l 101 0 l 335 0 l 335 453 l 338 453 l 703 0 z "},"L":{"ha":731,"x_min":0,"x_max":0,"o":"m 721 0 l 721 207 l 340 207 l 340 983 l 101 983 l 101 0 z "},"M":{"ha":1326,"x_min":0,"x_max":0,"o":"m 1225 0 l 1225 983 l 882 983 l 668 353 l 663 353 l 439 983 l 101 983 l 101 0 l 325 0 l 319 696 l 324 696 l 572 0 l 739 0 l 994 696 l 999 696 l 993 0 z "},"N":{"ha":1097,"x_min":0,"x_max":0,"o":"m 996 0 l 996 983 l 765 983 l 771 342 l 767 342 l 372 983 l 101 983 l 101 0 l 332 0 l 326 643 l 331 643 l 726 0 z "},"O":{"ha":1182,"x_min":0,"x_max":0,"o":"m 1126 496 b 590 1010 1126 811 899 1010 b 56 496 283 1010 56 811 b 590 -26 56 185 283 -26 b 1126 496 899 -26 1126 185 z m 872 496 b 590 190 872 318 756 190 b 310 496 425 190 310 318 b 590 796 310 668 424 796 b 872 496 757 796 872 668 z "},"P":{"ha":889,"x_min":0,"x_max":0,"o":"m 847 681 b 463 983 847 906 678 983 l 101 983 l 101 0 l 339 0 l 339 371 l 457 371 b 847 681 663 371 847 453 z m 610 679 b 439 560 610 586 528 560 l 339 560 l 339 792 l 443 792 b 610 679 528 792 610 774 z "},"Q":{"ha":1190,"x_min":0,"x_max":0,"o":"m 1174 0 l 1174 189 l 967 185 l 967 189 b 1113 508 1038 243 1113 358 b 583 1010 1113 804 889 1010 b 50 504 279 1010 50 803 b 575 0 50 182 263 0 z m 861 501 b 582 203 861 325 743 203 b 306 501 419 203 306 325 b 583 794 306 672 425 794 b 861 501 747 794 861 672 z "},"R":{"ha":921,"x_min":0,"x_max":0,"o":"m 906 0 l 649 421 b 853 686 775 460 853 554 b 476 983 853 911 665 983 l 101 983 l 101 0 l 335 0 l 335 390 l 415 390 l 628 0 z m 618 682 b 446 563 618 582 522 563 l 333 563 l 333 792 l 460 792 b 618 682 531 792 618 774 z "},"S":{"ha":821,"x_min":0,"x_max":0,"o":"m 772 888 b 450 1008 686 967 561 1008 b 69 700 267 1008 69 918 b 321 418 69 522 196 458 b 525 278 450 376 525 353 b 389 171 525 199 461 171 b 176 275 311 171 224 215 l 21 117 b 389 -25 107 26 249 -25 b 765 303 583 -25 765 76 b 460 599 765 499 593 556 b 308 714 367 628 308 649 b 446 813 308 792 385 813 b 621 728 507 813 581 779 z "},"T":{"ha":807,"x_min":0,"x_max":0,"o":"m 800 781 l 800 983 l 7 983 l 7 781 l 285 781 l 285 0 l 522 0 l 522 781 z "},"U":{"ha":1025,"x_min":0,"x_max":0,"o":"m 935 371 l 935 983 l 697 983 l 697 390 b 513 188 697 285 647 188 b 328 390 379 188 328 285 l 328 983 l 92 983 l 92 371 b 511 -26 92 135 253 -26 b 935 371 768 -26 935 135 z "},"V":{"ha":947,"x_min":0,"x_max":0,"o":"m 968 983 l 706 983 l 479 286 l 474 286 l 246 983 l -21 983 l 351 0 l 589 0 z "},"W":{"ha":1424,"x_min":0,"x_max":0,"o":"m 1424 983 l 1176 983 l 1018 329 l 1014 329 l 838 983 l 590 983 l 415 329 l 411 329 l 256 983 l 0 983 l 279 0 l 515 0 l 710 665 l 714 665 l 908 0 l 1143 0 z "},"X":{"ha":976,"x_min":0,"x_max":0,"o":"m 988 0 l 632 519 l 943 983 l 667 983 l 486 678 l 303 983 l 17 983 l 333 519 l -11 0 l 272 0 l 479 347 l 694 0 z "},"Y":{"ha":929,"x_min":0,"x_max":0,"o":"m 957 983 l 679 983 l 469 619 l 260 983 l -28 983 l 342 417 l 342 0 l 579 0 l 579 417 z "},"Z":{"ha":882,"x_min":0,"x_max":0,"o":"m 829 0 l 829 206 l 340 206 l 819 793 l 819 983 l 65 983 l 65 782 l 522 782 l 54 206 l 54 0 z "},"[":{"ha":475,"x_min":0,"x_max":0,"o":"m 374 -217 l 374 -75 l 250 -75 l 250 875 l 374 875 l 374 1017 l 74 1017 l 74 -217 z "},"\\":{"ha":576,"x_min":0,"x_max":0,"o":"m 586 -21 l 158 1058 l 1 1004 l 429 -72 z "},"]":{"ha":475,"x_min":0,"x_max":0,"o":"m 401 -217 l 401 1017 l 101 1017 l 101 875 l 225 875 l 225 -75 l 101 -75 l 101 -217 z "},"^":{"ha":958,"x_min":0,"x_max":0,"o":"m 856 476 l 561 983 l 397 983 l 101 476 l 307 476 l 478 772 l 650 476 z "},"_":{"ha":694,"x_min":0,"x_max":0,"o":"m 694 -228 l 694 -104 l 0 -104 l 0 -228 z "},"‘":{"ha":417,"x_min":0,"x_max":0,"o":"m 360 983 l 185 983 l 58 607 l 260 607 z "},"a":{"ha":786,"x_min":0,"x_max":0,"o":"m 497 278 b 354 136 497 192 446 136 b 256 207 308 136 256 154 b 468 301 256 289 368 301 l 497 301 z m 194 474 b 365 544 236 513 300 544 b 490 444 436 544 490 513 l 490 433 b 46 200 289 433 46 400 b 297 -17 46 38 188 -17 b 493 74 379 -17 458 17 l 497 74 l 497 0 l 706 0 l 706 349 b 388 714 706 600 619 714 b 79 597 275 714 160 674 z "},"b":{"ha":915,"x_min":0,"x_max":0,"o":"m 860 349 b 533 711 860 542 735 711 b 322 618 432 711 361 664 l 319 618 l 319 1050 l 92 1050 l 92 0 l 301 0 l 301 90 l 304 90 b 531 -19 349 21 439 -19 b 860 349 739 -19 860 156 z m 640 349 b 476 169 640 258 585 169 b 310 347 374 169 310 257 b 476 525 310 435 374 525 b 640 349 585 525 640 438 z "},"c":{"ha":699,"x_min":0,"x_max":0,"o":"m 697 621 b 440 714 643 676 539 714 b 54 346 225 714 54 571 b 442 -22 54 117 224 -22 b 697 67 543 -22 640 11 l 571 221 b 447 169 543 188 493 169 b 285 346 347 169 285 250 b 444 524 285 442 349 524 b 565 468 490 524 540 501 z "},"d":{"ha":914,"x_min":0,"x_max":0,"o":"m 822 0 l 822 1050 l 594 1050 l 594 618 l 592 618 b 381 711 553 664 482 711 b 54 349 179 711 54 542 b 383 -19 54 156 175 -19 b 610 90 475 -19 565 21 l 613 90 l 613 0 z m 604 347 b 438 169 604 257 540 169 b 274 349 329 169 274 258 b 438 525 274 438 329 525 b 604 347 540 525 604 435 z "},"e":{"ha":828,"x_min":0,"x_max":0,"o":"m 272 425 b 429 557 278 496 342 557 b 565 425 519 557 565 497 z m 775 338 b 428 714 775 574 632 714 b 54 343 218 714 54 569 b 435 -22 54 110 226 -22 b 749 125 575 -22 683 31 l 590 225 b 438 153 560 183 510 153 b 272 283 356 153 279 207 l 774 283 b 775 338 775 300 775 319 z "},"f":{"ha":506,"x_min":0,"x_max":0,"o":"m 533 1063 b 424 1076 503 1072 463 1076 b 126 758 193 1076 126 928 l 126 692 l 0 692 l 0 521 l 126 521 l 126 0 l 354 0 l 354 521 l 508 521 l 508 692 l 354 692 l 354 761 b 456 892 354 825 372 892 b 518 882 478 892 501 888 z "},"g":{"ha":914,"x_min":0,"x_max":0,"o":"m 822 65 l 822 692 l 607 692 l 607 603 l 604 603 b 383 711 556 676 469 711 b 54 349 175 711 54 540 b 385 -7 54 157 175 -7 b 594 85 476 -7 551 29 l 599 85 l 599 43 b 403 -150 599 -72 536 -150 b 174 -62 325 -150 240 -121 l 60 -225 b 415 -333 153 -294 294 -333 b 822 65 661 -333 822 -206 z m 606 350 b 438 174 606 256 542 174 b 275 350 335 174 275 258 b 438 525 275 446 335 525 b 606 350 540 525 606 444 z "},"h":{"ha":857,"x_min":0,"x_max":0,"o":"m 774 0 l 774 428 b 521 711 774 567 708 711 b 322 604 425 711 353 660 l 319 604 l 319 1050 l 92 1050 l 92 0 l 319 0 l 319 374 b 443 521 319 456 364 521 b 544 375 525 521 544 453 l 544 0 z "},"i":{"ha":411,"x_min":0,"x_max":0,"o":"m 336 913 b 206 1038 336 982 278 1038 b 75 913 132 1038 75 979 b 206 788 75 844 132 788 b 336 913 278 788 336 842 z m 319 0 l 319 692 l 92 692 l 92 0 z "},"j":{"ha":415,"x_min":0,"x_max":0,"o":"m 340 913 b 210 1038 340 982 282 1038 b 79 913 136 1038 79 979 b 210 788 79 844 136 788 b 340 913 282 788 340 842 z m 324 -18 l 324 692 l 96 692 l 96 -18 b 13 -139 96 -89 79 -139 b -36 -132 0 -139 -19 -137 l -51 -322 b 47 -333 -26 -329 17 -333 b 324 -18 271 -333 324 -189 z "},"k":{"ha":826,"x_min":0,"x_max":0,"o":"m 554 379 l 821 692 l 544 692 l 324 411 l 319 411 l 319 1050 l 90 1050 l 90 0 l 319 0 l 319 332 l 324 332 l 550 0 l 832 0 z "},"l":{"ha":414,"x_min":0,"x_max":0,"o":"m 322 0 l 322 1050 l 92 1050 l 92 0 z "},"m":{"ha":1283,"x_min":0,"x_max":0,"o":"m 1200 0 l 1200 428 b 949 711 1200 558 1136 711 b 728 593 846 711 774 665 b 519 711 689 668 619 711 b 313 596 415 711 344 654 l 310 596 l 310 692 l 89 692 l 89 0 l 318 0 l 318 375 b 432 524 318 458 360 524 b 531 394 500 524 531 474 l 531 0 l 758 0 l 758 374 b 874 524 758 451 796 524 b 972 378 954 524 972 457 l 972 0 z "},"n":{"ha":856,"x_min":0,"x_max":0,"o":"m 772 0 l 772 428 b 519 711 772 567 706 711 b 313 596 424 711 344 657 l 310 596 l 310 692 l 89 692 l 89 0 l 318 0 l 318 375 b 440 524 318 454 360 524 b 543 378 522 524 543 454 l 543 0 z "},"o":{"ha":878,"x_min":0,"x_max":0,"o":"m 822 349 b 438 714 822 575 647 714 b 54 349 229 714 54 575 b 438 -22 54 122 229 -22 b 822 349 647 -22 822 122 z m 603 349 b 439 169 603 260 546 169 b 275 349 332 169 275 260 b 438 525 275 438 331 525 b 603 349 544 525 603 438 z "},"p":{"ha":913,"x_min":0,"x_max":0,"o":"m 858 349 b 531 711 858 542 732 711 b 310 607 429 711 351 663 l 306 607 l 306 692 l 89 692 l 89 -333 l 317 -333 l 317 76 l 319 76 b 529 -19 363 17 444 -19 b 858 349 738 -19 858 156 z m 638 349 b 475 169 638 258 583 169 b 308 347 372 169 308 257 b 475 525 308 435 372 525 b 638 349 583 525 638 438 z "},"q":{"ha":913,"x_min":0,"x_max":0,"o":"m 822 -333 l 822 692 l 607 692 l 607 607 l 603 607 b 381 711 561 663 483 711 b 54 349 179 711 54 542 b 383 -19 54 156 174 -19 b 593 76 468 -19 549 17 l 596 76 l 596 -333 z m 604 347 b 438 169 604 257 540 169 b 274 349 329 169 274 258 b 438 525 274 438 329 525 b 604 347 540 525 604 435 z "},"r":{"ha":550,"x_min":0,"x_max":0,"o":"m 547 706 b 499 711 536 710 517 711 b 311 592 414 711 346 661 l 308 592 l 308 692 l 89 692 l 89 0 l 317 0 l 317 356 b 479 513 317 413 357 513 b 538 506 497 513 517 511 z "},"s":{"ha":656,"x_min":0,"x_max":0,"o":"m 621 617 b 343 714 553 681 446 714 b 56 482 211 714 56 647 b 257 281 56 351 161 303 b 394 201 351 258 394 244 b 313 142 394 157 350 142 b 143 219 246 142 183 175 l 15 85 b 317 -22 88 15 204 -22 b 613 214 458 -22 613 39 b 392 425 613 349 497 401 b 265 494 303 444 265 456 b 351 550 265 535 308 550 b 496 488 407 550 460 522 z "},"t":{"ha":517,"x_min":0,"x_max":0,"o":"m 499 521 l 499 692 l 336 692 l 336 874 l 113 874 l 113 692 l 3 692 l 3 521 l 114 521 l 114 229 b 360 -17 114 82 175 -17 b 492 4 408 -17 461 -7 l 489 171 b 422 160 472 164 444 160 b 336 257 357 160 336 193 l 336 521 z "},"u":{"ha":853,"x_min":0,"x_max":0,"o":"m 764 0 l 764 692 l 536 692 l 536 318 b 414 169 536 239 493 169 b 311 317 331 169 311 239 l 311 692 l 82 692 l 82 264 b 333 -19 82 125 147 -19 b 542 96 431 -19 510 35 l 544 96 l 544 0 z "},"v":{"ha":788,"x_min":0,"x_max":0,"o":"m 789 692 l 546 692 l 400 243 l 396 243 l 250 692 l -1 692 l 271 0 l 517 0 z "},"w":{"ha":1210,"x_min":0,"x_max":0,"o":"m 1210 692 l 974 692 l 853 254 l 850 254 l 722 692 l 493 692 l 369 254 l 365 254 l 246 692 l 0 692 l 239 0 l 468 0 l 601 431 l 604 431 l 740 0 l 969 0 z "},"x":{"ha":825,"x_min":0,"x_max":0,"o":"m 829 0 l 556 363 l 804 692 l 547 692 l 417 507 l 288 692 l 22 692 l 272 363 l -4 0 l 260 0 l 413 213 l 561 0 z "},"y":{"ha":788,"x_min":0,"x_max":0,"o":"m 789 692 l 547 692 l 410 247 l 406 247 l 251 692 l -1 692 l 288 11 l 265 -46 b 149 -139 243 -106 219 -139 b 75 -126 126 -139 97 -133 l 50 -318 b 175 -333 83 -326 132 -333 b 479 -104 349 -333 424 -249 z "},"z":{"ha":711,"x_min":0,"x_max":0,"o":"m 664 0 l 664 176 l 315 176 l 650 521 l 650 692 l 60 692 l 60 517 l 372 517 l 47 178 l 47 0 z "},"{":{"ha":475,"x_min":0,"x_max":0,"o":"m 406 -217 l 406 -71 l 340 -71 b 276 13 286 -71 276 -28 l 276 239 b 147 399 276 360 192 394 l 147 401 b 276 556 192 407 276 447 l 276 788 b 340 871 276 828 286 871 l 406 871 l 406 1017 l 292 1017 b 101 811 176 1017 101 936 l 101 574 b 8 476 101 494 54 476 l 8 324 b 101 221 54 324 101 306 l 101 -11 b 292 -217 101 -136 176 -217 z "},"|":{"ha":335,"x_min":0,"x_max":0,"o":"m 258 -347 l 258 1042 l 76 1042 l 78 -347 z "},"}":{"ha":475,"x_min":0,"x_max":0,"o":"m 467 324 l 467 476 b 374 574 421 476 374 494 l 374 811 b 183 1017 374 936 299 1017 l 69 1017 l 69 871 l 135 871 b 199 788 189 871 199 828 l 199 556 b 328 401 199 447 283 407 l 328 399 b 199 239 283 394 199 360 l 199 13 b 135 -71 199 -28 189 -71 l 69 -71 l 69 -217 l 183 -217 b 374 -11 299 -217 374 -136 l 374 221 b 467 324 374 306 421 324 z "},"~":{"ha":925,"x_min":0,"x_max":0,"o":"m 824 399 l 733 539 b 613 440 700 489 664 440 b 475 496 581 440 538 460 b 308 547 419 529 368 547 b 118 410 222 547 161 493 l 210 265 b 326 363 238 322 272 363 b 475 310 378 363 419 344 b 631 257 532 274 572 257 b 824 396 728 257 782 325 z "},"¡":{"ha":496,"x_min":0,"x_max":0,"o":"m 383 588 b 247 719 383 661 322 719 b 113 589 175 719 113 663 b 247 457 113 517 172 457 b 383 588 322 457 383 515 z m 364 -278 l 364 376 l 131 376 l 131 -278 z "},"¢":{"ha":897,"x_min":0,"x_max":0,"o":"m 764 71 l 651 213 b 542 158 624 183 585 163 l 542 533 b 647 479 583 528 619 508 l 763 624 b 542 711 711 678 626 706 l 542 800 l 436 800 l 436 711 b 113 347 242 683 113 546 b 436 -19 113 150 240 3 l 436 -110 l 542 -110 l 542 -19 b 764 71 625 -12 710 17 z m 436 161 b 308 346 356 183 308 258 b 436 531 308 436 353 511 z "},"£":{"ha":897,"x_min":0,"x_max":0,"o":"m 868 914 b 593 1010 806 971 713 1010 b 232 663 333 1010 232 814 l 232 578 l 100 578 l 100 418 l 232 418 l 232 196 l 100 196 l 100 0 l 821 0 l 821 196 l 461 196 l 461 418 l 678 418 l 678 578 l 461 578 l 461 649 b 607 814 461 722 492 814 b 735 761 657 814 706 793 z "},"⁄":{"ha":139,"x_min":0,"x_max":0,"o":"m 390 971 l 269 1028 l -269 13 l -149 -42 z "},"¥":{"ha":897,"x_min":0,"x_max":0,"o":"m 885 983 l 636 983 l 457 622 l 274 983 l 17 983 l 269 578 l 93 578 l 93 435 l 340 435 l 340 344 l 93 344 l 93 201 l 340 201 l 340 0 l 560 0 l 560 201 l 808 201 l 808 344 l 560 344 l 560 435 l 808 435 l 808 578 l 636 578 z "},"ƒ":{"ha":897,"x_min":0,"x_max":0,"o":"m 733 606 l 558 606 l 578 696 b 679 814 592 763 614 814 b 758 789 703 814 731 806 l 842 957 b 651 1004 792 986 728 1004 b 363 714 449 1004 393 860 l 340 606 l 154 606 l 154 449 l 313 449 l 244 114 b 147 -10 231 40 208 -10 b 78 13 126 -10 100 -3 l -3 -154 b 167 -193 46 -179 108 -193 b 451 68 333 -193 418 -100 l 528 449 l 733 449 z "},"§":{"ha":843,"x_min":0,"x_max":0,"o":"m 781 388 b 525 644 781 531 664 593 b 363 758 418 682 363 708 b 461 826 363 806 415 826 b 607 743 514 826 574 794 l 768 865 b 451 1008 704 958 588 1008 b 132 763 310 1008 132 935 b 206 606 132 696 157 642 b 86 414 142 569 86 508 b 331 178 86 276 193 225 b 513 53 458 133 513 114 b 411 -18 513 6 457 -18 b 225 83 349 -18 267 13 l 56 -37 b 407 -206 129 -149 275 -206 b 746 61 561 -206 746 -131 b 676 214 746 122 726 179 b 781 388 739 249 781 314 z m 575 365 b 532 294 575 336 560 307 l 401 346 b 290 446 344 368 290 389 b 347 519 290 485 317 507 l 467 471 b 575 365 522 447 575 421 z "},"¤":{"ha":1319,"x_min":0,"x_max":0,"o":"m 990 638 l 1115 763 b 997 879 1076 801 1036 840 l 869 751 b 661 806 810 786 739 806 b 453 749 583 806 513 785 b 321 879 410 792 365 835 b 203 763 282 840 243 801 l 332 633 b 278 429 297 576 278 508 b 336 218 278 344 299 274 l 203 85 b 319 -32 243 46 281 7 b 457 104 365 13 411 58 b 661 47 525 64 590 47 b 864 101 736 47 807 67 b 999 -32 908 57 954 11 l 1115 85 l 986 214 b 1049 429 1026 272 1049 344 b 990 638 1049 511 1026 582 z m 661 613 b 838 429 765 613 838 528 b 661 243 838 326 767 243 b 486 429 557 243 486 326 b 661 613 486 528 557 613 z "},"'":{"ha":421,"x_min":0,"x_max":0,"o":"m 300 607 l 300 983 l 119 983 l 119 607 z "},"“":{"ha":704,"x_min":0,"x_max":0,"o":"m 647 983 l 472 983 l 349 607 l 549 607 z m 360 983 l 185 983 l 58 607 l 257 607 z "},"«":{"ha":754,"x_min":0,"x_max":0,"o":"m 707 118 l 547 353 l 707 588 l 572 675 l 349 353 l 572 31 z m 394 118 l 233 353 l 393 588 l 258 675 l 35 353 l 258 31 z "},"‹":{"ha":442,"x_min":0,"x_max":0,"o":"m 394 118 l 233 353 l 393 588 l 258 675 l 35 353 l 258 31 z "},"›":{"ha":442,"x_min":0,"x_max":0,"o":"m 407 351 l 183 675 l 47 588 l 208 351 l 49 118 l 183 31 z "},"ﬁ":{"ha":924,"x_min":0,"x_max":0,"o":"m 849 913 b 718 1038 849 982 789 1038 b 588 913 644 1038 588 979 b 718 788 588 844 644 788 b 849 913 789 788 849 842 z m 832 0 l 832 692 l 603 692 l 603 0 z m 533 1063 b 424 1076 503 1072 463 1076 b 126 758 193 1076 126 928 l 126 692 l 0 692 l 0 521 l 126 521 l 126 0 l 354 0 l 354 521 l 508 521 l 508 692 l 354 692 l 354 761 b 456 892 354 825 372 892 b 518 882 478 892 501 888 z "},"ﬂ":{"ha":925,"x_min":0,"x_max":0,"o":"m 833 0 l 833 1050 l 603 1050 l 603 0 z m 533 1063 b 424 1076 503 1072 463 1076 b 126 758 193 1076 126 928 l 126 692 l 0 692 l 0 521 l 126 521 l 126 0 l 354 0 l 354 521 l 508 521 l 508 692 l 354 692 l 354 761 b 456 892 354 825 372 892 b 518 882 478 892 501 888 z "},"–":{"ha":556,"x_min":0,"x_max":0,"o":"m 514 292 l 514 435 l 42 435 l 42 292 z "},"†":{"ha":838,"x_min":0,"x_max":0,"o":"m 785 531 l 785 704 l 515 704 l 515 983 l 318 983 l 318 704 l 53 704 l 53 531 l 318 531 l 318 -179 l 515 -179 l 515 531 z "},"‡":{"ha":838,"x_min":0,"x_max":0,"o":"m 781 69 l 781 242 l 517 242 l 517 564 l 781 564 l 781 735 l 517 735 l 517 983 l 319 983 l 319 735 l 58 735 l 58 564 l 321 564 l 321 242 l 58 242 l 58 69 l 321 69 l 321 -179 l 517 -179 l 517 69 z "},"·":{"ha":417,"x_min":0,"x_max":0,"o":"m 349 404 b 210 540 349 481 285 540 b 68 403 132 540 68 478 b 210 268 68 326 133 268 b 349 404 285 268 349 328 z "},"¶":{"ha":858,"x_min":0,"x_max":0,"o":"m 771 -179 l 771 983 l 372 983 b 33 719 182 983 33 919 b 331 465 33 569 149 469 l 331 -179 l 492 -179 l 492 844 l 610 844 l 610 -179 z "},"•":{"ha":694,"x_min":0,"x_max":0,"o":"m 593 492 b 347 738 593 628 483 738 b 101 492 211 738 101 628 b 347 246 101 356 211 246 b 593 492 483 246 593 356 z "},"‚":{"ha":417,"x_min":0,"x_max":0,"o":"m 357 201 l 156 201 l 56 -175 l 231 -175 z "},"„":{"ha":704,"x_min":0,"x_max":0,"o":"m 644 201 l 446 201 l 343 -175 l 519 -175 z m 354 201 l 156 201 l 56 -175 l 231 -175 z "},"”":{"ha":704,"x_min":0,"x_max":0,"o":"m 646 983 l 447 983 l 344 607 l 521 607 z m 356 983 l 157 983 l 57 607 l 232 607 z "},"»":{"ha":754,"x_min":0,"x_max":0,"o":"m 721 351 l 496 675 l 361 588 l 521 351 l 361 118 l 496 31 z m 407 351 l 183 675 l 47 588 l 208 351 l 49 118 l 183 31 z "},"…":{"ha":1389,"x_min":0,"x_max":0,"o":"m 1296 122 b 1157 258 1296 199 1232 258 b 1015 121 1079 258 1015 196 b 1157 -14 1015 44 1082 -14 b 1296 122 1232 -14 1296 46 z m 833 122 b 694 258 833 199 769 258 b 553 121 617 258 553 196 b 694 -14 553 44 619 -14 b 833 122 769 -14 833 46 z m 371 122 b 232 258 371 199 307 258 b 92 121 156 258 92 196 b 232 -14 92 44 157 -14 b 371 122 308 -14 371 46 z "},"‰":{"ha":1729,"x_min":0,"x_max":0,"o":"m 1681 232 b 1431 479 1681 369 1568 479 b 1182 232 1294 479 1182 369 b 1431 -17 1182 94 1294 -17 b 1681 232 1568 -17 1681 94 z m 1533 232 b 1431 129 1533 174 1489 129 b 1328 232 1372 129 1328 174 b 1431 335 1328 290 1372 335 b 1533 232 1489 335 1533 290 z m 1128 232 b 878 479 1128 369 1014 479 b 628 232 740 479 628 369 b 878 -17 628 94 740 -17 b 1128 232 1014 -17 1128 94 z m 981 232 b 878 129 981 174 935 129 b 775 232 819 129 775 174 b 878 335 775 290 819 335 b 981 232 935 335 981 290 z m 547 753 b 297 1000 547 890 433 1000 b 47 753 160 1000 47 890 b 297 504 47 615 160 504 b 547 753 433 504 547 615 z m 400 753 b 297 650 400 694 354 650 b 194 753 239 650 194 694 b 297 856 194 811 239 856 b 400 753 354 856 400 811 z m 917 971 l 793 1028 l 254 13 l 378 -42 z "},"¿":{"ha":758,"x_min":0,"x_max":0,"o":"m 501 589 b 365 719 501 663 439 719 b 229 588 290 719 229 661 b 365 457 229 515 292 457 b 501 589 440 457 501 517 z m 704 -3 l 482 22 b 364 -108 481 -46 439 -108 b 261 -10 301 -108 261 -69 b 318 89 261 32 286 60 l 365 131 b 475 340 436 196 475 243 l 475 392 l 258 392 l 258 356 b 183 228 258 299 243 274 b 26 -26 88 154 26 96 b 354 -303 26 -218 190 -303 b 704 -3 532 -303 682 -204 z "},"`":{"ha":417,"x_min":0,"x_max":0,"o":"m 321 794 l 176 994 l -54 994 l 149 794 z "},"´":{"ha":417,"x_min":0,"x_max":0,"o":"m 471 994 l 240 994 l 96 794 l 268 794 z "},"ˆ":{"ha":417,"x_min":0,"x_max":0,"o":"m 482 794 l 313 994 l 107 994 l -65 794 l 113 794 l 207 907 l 301 794 z "},"˜":{"ha":417,"x_min":0,"x_max":0,"o":"m 465 983 l 367 983 b 308 926 358 950 343 926 b 218 954 283 926 257 936 b 107 982 182 971 146 982 b -50 801 6 982 -37 897 l 50 801 b 108 857 58 831 75 857 b 196 829 133 857 158 849 b 308 800 232 813 269 800 b 465 983 410 800 454 886 z "},"¯":{"ha":417,"x_min":0,"x_max":0,"o":"m 442 835 l 442 954 l -25 954 l -25 835 z "},"˘":{"ha":417,"x_min":0,"x_max":0,"o":"m 450 994 l 333 994 b 208 918 321 929 271 918 b 128 933 181 918 151 922 b 83 994 106 946 89 965 l -33 994 b 207 794 -24 849 81 794 b 450 994 336 794 438 850 z "},"˙":{"ha":417,"x_min":0,"x_max":0,"o":"m 333 913 b 208 1032 333 979 278 1032 b 85 913 139 1032 85 976 b 208 794 85 849 139 794 b 333 913 278 794 333 846 z "},"¨":{"ha":417,"x_min":0,"x_max":0,"o":"m 475 914 b 360 1026 475 976 422 1026 b 244 914 294 1026 244 974 b 360 800 244 851 294 800 b 475 914 422 800 475 850 z m 174 914 b 57 1026 174 976 121 1026 b -58 914 -7 1026 -58 974 b 57 800 -58 851 -7 800 b 174 914 121 800 174 850 z "},"˚":{"ha":417,"x_min":0,"x_max":0,"o":"m 360 922 b 208 1071 360 1007 292 1071 b 57 921 124 1071 57 1007 b 208 774 57 836 125 774 b 360 922 292 774 360 836 z m 290 922 b 208 842 290 876 254 842 b 126 921 163 842 126 876 b 208 1003 126 967 161 1003 b 290 922 254 1003 290 968 z "},"¸":{"ha":417,"x_min":0,"x_max":0,"o":"m 393 -197 b 250 -82 393 -103 317 -82 b 225 -83 242 -82 235 -82 l 290 0 l 176 0 l 83 -124 l 126 -164 b 182 -156 143 -158 165 -156 b 247 -196 210 -156 247 -162 b 178 -242 247 -233 207 -242 b 61 -215 140 -242 96 -232 l 24 -299 b 189 -333 67 -319 132 -333 b 393 -197 276 -333 393 -304 z "},"˝":{"ha":417,"x_min":0,"x_max":0,"o":"m 633 994 l 403 994 l 258 794 l 431 794 z m 328 994 l 97 994 l -47 794 l 125 794 z "},"˛":{"ha":417,"x_min":0,"x_max":0,"o":"m 333 -272 l 289 -186 b 213 -214 265 -203 239 -214 b 161 -164 183 -214 161 -193 b 293 6 161 -114 221 -51 l 167 6 b 17 -201 100 -42 17 -119 b 174 -328 17 -292 99 -328 b 333 -272 232 -328 290 -304 z "},"ˇ":{"ha":417,"x_min":0,"x_max":0,"o":"m 482 994 l 304 994 l 210 882 l 115 994 l -65 994 l 107 794 l 311 794 z "},"—":{"ha":833,"x_min":0,"x_max":0,"o":"m 792 290 l 792 435 l 42 435 l 42 290 z "},"Æ":{"ha":1435,"x_min":0,"x_max":0,"o":"m 1379 0 l 1379 203 l 940 203 l 940 407 l 1331 407 l 1331 597 l 940 597 l 940 782 l 1354 782 l 1354 983 l 569 983 l -6 0 l 271 0 l 393 213 l 714 213 l 714 0 z m 714 404 l 488 404 l 700 782 l 714 782 z "},"ª":{"ha":533,"x_min":0,"x_max":0,"o":"m 328 599 l 457 599 l 457 826 b 264 1004 457 922 417 1004 b 82 939 197 1004 128 982 b 157 863 107 914 132 888 b 251 901 179 885 214 901 b 321 853 292 901 321 886 l 321 847 b 63 711 206 847 63 832 b 210 589 63 625 139 589 b 326 636 260 589 307 606 l 328 636 z m 325 751 b 249 682 325 711 297 682 b 197 719 225 682 197 693 b 308 768 197 760 258 768 l 325 768 z "},"Ł":{"ha":731,"x_min":0,"x_max":0,"o":"m 721 0 l 721 207 l 340 207 l 340 424 l 606 656 l 606 851 l 340 619 l 340 983 l 101 983 l 101 443 l 13 365 l 13 168 l 101 246 l 101 0 z "},"Ø":{"ha":1182,"x_min":0,"x_max":0,"o":"m 56 494 b 178 153 56 358 99 238 b 54 18 136 108 96 63 b 147 -61 85 -7 117 -35 b 271 71 189 -17 229 26 b 582 -25 351 8 461 -25 l 589 -25 b 1126 494 897 -24 1126 185 b 989 851 1126 642 1078 761 b 1108 981 1029 894 1068 939 b 1015 1063 1078 1008 1046 1035 b 894 928 975 1017 933 972 b 590 1008 810 981 706 1008 b 56 494 283 1008 56 810 z m 882 494 b 589 182 882 318 768 182 b 424 233 524 182 465 200 b 829 675 558 381 694 528 b 882 494 865 628 882 565 z m 297 493 b 590 804 297 665 407 804 b 743 764 651 804 706 789 b 340 326 608 618 474 472 b 297 493 311 371 297 425 z "},"Œ":{"ha":1415,"x_min":0,"x_max":0,"o":"m 1360 0 l 1360 203 l 922 203 l 922 407 l 1313 407 l 1313 597 l 922 597 l 922 782 l 1336 782 l 1336 983 l 614 983 b 56 493 336 983 56 853 b 614 0 56 136 336 0 z m 696 203 l 626 203 b 308 489 467 203 308 279 b 632 782 308 718 465 782 l 696 782 z "},"º":{"ha":533,"x_min":0,"x_max":0,"o":"m 483 799 b 267 1006 483 924 388 1006 b 51 799 147 1006 51 924 b 267 589 51 672 147 589 b 483 799 388 589 483 672 z m 351 799 b 267 710 351 751 321 710 b 185 799 214 710 185 751 b 267 886 185 844 214 886 b 351 799 319 886 351 844 z "},"æ":{"ha":1249,"x_min":0,"x_max":0,"o":"m 497 265 b 354 136 497 186 446 136 b 256 207 308 136 256 154 b 468 288 256 274 338 288 l 497 288 z m 692 425 b 849 557 697 496 761 557 b 985 425 939 557 985 497 z m 1010 225 b 857 153 981 183 931 153 b 693 283 775 153 701 206 l 1193 283 b 1196 338 1194 300 1196 319 b 849 714 1196 574 1051 714 b 611 613 743 714 661 671 b 388 714 575 665 501 714 b 81 597 275 714 160 674 l 194 474 b 367 544 236 513 303 544 b 490 433 442 544 490 511 l 490 424 b 46 200 265 424 46 393 b 313 -17 46 42 193 -17 b 593 103 468 -17 550 33 b 853 -22 647 24 744 -22 b 1167 125 994 -22 1103 31 z "},"ı":{"ha":411,"x_min":0,"x_max":0,"o":"m 319 0 l 319 692 l 92 692 l 92 0 z "},"ł":{"ha":414,"x_min":0,"x_max":0,"o":"m 403 631 l 403 828 l 322 749 l 322 1050 l 92 1050 l 92 571 l 11 492 l 11 293 l 92 371 l 92 0 l 322 0 l 322 553 z "},"ø":{"ha":878,"x_min":0,"x_max":0,"o":"m 843 667 l 760 747 l 660 647 b 438 715 600 692 522 715 b 54 347 226 715 54 569 b 133 119 54 256 85 175 l 33 21 l 115 -60 l 219 43 b 438 -22 278 0 356 -22 b 822 347 650 -22 822 125 b 746 571 822 435 796 513 z m 517 507 l 286 274 b 267 353 274 292 267 325 b 435 533 267 444 326 533 b 517 507 465 533 497 522 z m 606 344 b 440 164 606 253 549 164 b 356 192 408 164 375 174 l 588 425 b 606 344 600 404 606 374 z "},"œ":{"ha":1351,"x_min":0,"x_max":0,"o":"m 275 349 b 438 525 275 436 331 525 b 601 349 544 525 601 436 b 438 169 601 258 544 169 b 275 349 331 169 275 258 z m 796 425 b 953 557 801 496 865 557 b 1089 425 1043 557 1089 497 z m 1114 225 b 961 153 1083 183 1033 153 b 796 283 879 153 806 206 l 1297 283 b 1299 338 1299 300 1299 319 b 954 714 1299 574 1156 714 b 694 593 842 714 751 661 b 435 714 643 664 547 714 b 54 349 225 714 54 574 b 435 -22 54 121 225 -22 b 693 93 549 -22 639 24 b 958 -22 744 25 842 -22 b 1271 125 1099 -22 1207 31 z "},"ß":{"ha":926,"x_min":0,"x_max":0,"o":"m 385 194 l 385 -1 b 518 -18 431 -12 475 -18 b 874 308 732 -18 874 104 b 661 579 874 453 789 554 l 661 581 b 806 789 742 606 806 686 b 469 1067 806 961 654 1067 b 89 696 207 1067 89 907 l 89 0 l 317 0 l 317 694 b 460 882 317 783 349 882 b 576 769 536 882 576 829 b 457 657 576 669 493 657 l 426 657 l 426 478 l 456 478 b 643 319 558 478 643 431 b 486 176 643 215 575 176 b 385 194 464 176 415 183 z "},"×":{"ha":925,"x_min":0,"x_max":0,"o":"m 839 181 l 590 424 l 832 664 l 706 785 l 464 546 l 218 786 l 88 660 l 335 418 l 89 175 l 218 51 l 463 292 l 708 51 z "},"≥":{"ha":925,"x_min":0,"x_max":0,"o":"m 110 25 l 815 25 l 815 196 l 110 196 z m 110 214 l 815 511 l 815 654 l 110 951 l 110 763 l 535 581 l 110 404 z "},"ű":{"ha":853,"x_min":0,"x_max":0,"o":"m 764 0 l 764 692 l 536 692 l 536 318 b 414 169 536 239 493 169 b 311 317 331 169 311 239 l 311 692 l 82 692 l 82 264 b 333 -19 82 125 147 -19 b 542 96 431 -19 510 35 l 544 96 l 544 0 z m 864 994 l 633 994 l 489 794 l 661 794 z m 558 994 l 328 994 l 183 794 l 356 794 z "},"ò":{"ha":878,"x_min":0,"x_max":0,"o":"m 822 349 b 438 714 822 575 647 714 b 54 349 229 714 54 575 b 438 -22 54 122 229 -22 b 822 349 647 -22 822 122 z m 603 349 b 439 169 603 260 546 169 b 275 349 332 169 275 260 b 438 525 275 438 331 525 b 603 349 544 525 603 438 z m 551 794 l 407 994 l 176 994 l 379 794 z "},"√":{"ha":790,"x_min":0,"x_max":0,"o":"m 804 1092 l 603 1092 l 383 22 l 228 354 l -15 244 l 60 86 l 131 119 l 332 -297 l 507 -297 z "},"≠":{"ha":925,"x_min":0,"x_max":0,"o":"m 790 153 l 790 329 l 503 329 l 563 446 l 790 446 l 790 622 l 653 622 l 718 747 l 558 824 l 454 622 l 72 622 l 72 446 l 364 446 l 304 329 l 72 329 l 72 153 l 214 153 l 149 28 l 308 -50 l 411 153 z "},"ō":{"ha":878,"x_min":0,"x_max":0,"o":"m 822 349 b 438 714 822 575 647 714 b 54 349 229 714 54 575 b 438 -22 54 122 229 -22 b 822 349 647 -22 822 122 z m 603 349 b 439 169 603 260 546 169 b 275 349 332 169 275 260 b 438 525 275 438 331 525 b 603 349 544 525 603 438 z m 671 835 l 671 954 l 204 954 l 204 835 z "},"ő":{"ha":878,"x_min":0,"x_max":0,"o":"m 822 349 b 438 714 822 575 647 714 b 54 349 229 714 54 575 b 438 -22 54 122 229 -22 b 822 349 647 -22 822 122 z m 603 349 b 439 169 603 260 546 169 b 275 349 332 169 275 260 b 438 525 275 438 331 525 b 603 349 544 525 603 438 z m 879 994 l 649 994 l 504 794 l 676 794 z m 574 994 l 343 994 l 199 794 l 371 794 z "},"":{"ha":711,"x_min":0,"x_max":0,"o":"m 308 163 l 308 256 l 386 256 l 386 163 z m 313 325 l 310 349 b 328 461 310 400 315 438 b 392 543 340 485 361 513 b 461 658 451 600 461 624 b 356 776 461 725 413 776 b 242 644 299 776 253 739 l 172 656 b 360 846 185 788 260 846 b 532 664 458 846 532 774 b 444 497 532 604 515 563 b 385 425 410 467 390 443 b 376 325 379 407 376 374 z m 642 69 l 642 926 l 69 926 l 69 69 z m 711 997 l 711 0 l 0 0 l 0 997 z "},"õ":{"ha":878,"x_min":0,"x_max":0,"o":"m 822 349 b 438 714 822 575 647 714 b 54 349 229 714 54 575 b 438 -22 54 122 229 -22 b 822 349 647 -22 822 122 z m 603 349 b 439 169 603 260 546 169 b 275 349 332 169 275 260 b 438 525 275 438 331 525 b 603 349 544 525 603 438 z m 696 983 l 597 983 b 539 926 589 950 574 926 b 449 954 514 926 488 936 b 338 982 413 971 376 982 b 181 801 236 982 193 897 l 281 801 b 339 857 289 831 306 857 b 426 829 364 857 389 849 b 539 800 463 813 500 800 b 696 983 640 800 685 886 z "},"ñ":{"ha":856,"x_min":0,"x_max":0,"o":"m 772 0 l 772 428 b 519 711 772 567 706 711 b 313 596 424 711 344 657 l 310 596 l 310 692 l 89 692 l 89 0 l 318 0 l 318 375 b 440 524 318 454 360 524 b 543 378 522 524 543 454 l 543 0 z m 690 983 l 592 983 b 533 926 583 950 568 926 b 443 954 508 926 482 936 b 332 982 407 971 371 982 b 175 801 231 982 188 897 l 275 801 b 333 857 283 831 300 857 b 421 829 358 857 383 849 b 533 800 457 813 494 800 b 690 983 635 800 679 886 z "},"ö":{"ha":878,"x_min":0,"x_max":0,"o":"m 822 349 b 438 714 822 575 647 714 b 54 349 229 714 54 575 b 438 -22 54 122 229 -22 b 822 349 647 -22 822 122 z m 603 349 b 439 169 603 260 546 169 b 275 349 332 169 275 260 b 438 525 275 438 331 525 b 603 349 544 525 603 438 z m 704 914 b 589 1026 704 976 651 1026 b 474 914 524 1026 474 974 b 589 800 474 851 524 800 b 704 914 651 800 704 850 z m 403 914 b 286 1026 403 976 350 1026 b 171 914 222 1026 171 974 b 286 800 171 851 222 800 b 403 914 350 800 403 850 z "},"ĵ":{"ha":415,"x_min":0,"x_max":0,"o":"m 324 -18 l 324 692 l 96 692 l 96 -18 b 13 -139 96 -89 79 -139 b -36 -132 0 -139 -19 -137 l -51 -322 b 47 -333 -26 -329 17 -333 b 324 -18 271 -333 324 -189 z m 481 794 l 311 994 l 106 994 l -67 794 l 111 794 l 206 907 l 300 794 z "},"ň":{"ha":856,"x_min":0,"x_max":0,"o":"m 772 0 l 772 428 b 519 711 772 567 706 711 b 313 596 424 711 344 657 l 310 596 l 310 692 l 89 692 l 89 0 l 318 0 l 318 375 b 440 524 318 454 360 524 b 543 378 522 524 543 454 l 543 0 z m 704 994 l 526 994 l 432 882 l 338 994 l 157 994 l 329 794 l 533 794 z "},"ï":{"ha":411,"x_min":0,"x_max":0,"o":"m 319 0 l 319 692 l 92 692 l 92 0 z m 475 914 b 360 1026 475 976 422 1026 b 244 914 294 1026 244 974 b 360 800 244 851 294 800 b 475 914 422 800 475 850 z m 174 914 b 57 1026 174 976 121 1026 b -58 914 -7 1026 -58 974 b 57 800 -58 851 -7 800 b 174 914 121 800 174 850 z "},"ô":{"ha":878,"x_min":0,"x_max":0,"o":"m 822 349 b 438 714 822 575 647 714 b 54 349 229 714 54 575 b 438 -22 54 122 229 -22 b 822 349 647 -22 822 122 z m 603 349 b 439 169 603 260 546 169 b 275 349 332 169 275 260 b 438 525 275 438 331 525 b 603 349 544 525 603 438 z m 704 800 l 540 994 l 340 994 l 172 800 l 346 800 l 438 910 l 529 800 z "},"½":{"ha":1306,"x_min":0,"x_max":0,"o":"m 1242 0 l 1242 139 l 1015 139 l 1136 244 b 1242 431 1190 293 1242 344 b 1019 618 1242 560 1132 618 b 785 413 900 618 799 542 l 938 393 b 1014 478 942 444 972 478 b 1075 421 1051 478 1075 454 b 1035 344 1075 390 1058 365 l 799 128 l 799 0 z m 974 971 l 847 1026 l 314 13 l 435 -42 z m 413 378 l 413 983 l 265 983 l 64 835 l 147 722 l 250 803 l 250 378 z "},"ũ":{"ha":853,"x_min":0,"x_max":0,"o":"m 764 0 l 764 692 l 536 692 l 536 318 b 414 169 536 239 493 169 b 311 317 331 169 311 239 l 311 692 l 82 692 l 82 264 b 333 -19 82 125 147 -19 b 542 96 431 -19 510 35 l 544 96 l 544 0 z m 682 983 l 583 983 b 525 926 575 950 560 926 b 435 954 500 926 474 936 b 324 982 399 971 363 982 b 167 801 222 982 179 897 l 267 801 b 325 857 275 831 292 857 b 413 829 350 857 375 849 b 525 800 449 813 486 800 b 682 983 626 800 671 886 z "},"∏":{"ha":1046,"x_min":0,"x_max":0,"o":"m 965 -297 l 965 1092 l 82 1092 l 82 -297 l 292 -297 l 292 907 l 754 907 l 754 -297 z "},"²":{"ha":583,"x_min":0,"x_max":0,"o":"m 519 382 l 519 519 l 293 519 l 414 626 b 519 813 468 675 519 725 b 297 999 519 942 410 999 b 63 793 178 999 76 924 l 215 775 b 290 860 219 825 249 860 b 353 803 329 860 353 836 b 313 725 353 772 336 747 l 76 510 l 76 382 z "},"ĺ":{"ha":414,"x_min":0,"x_max":0,"o":"m 322 0 l 322 1050 l 92 1050 l 92 0 z m 467 1300 l 236 1300 l 92 1100 l 264 1100 z "},"ŉ":{"ha":981,"x_min":0,"x_max":0,"o":"m 897 0 l 897 428 b 644 711 897 567 831 711 b 438 596 549 711 469 657 l 435 596 l 435 692 l 214 692 l 214 0 l 443 0 l 443 375 b 565 524 443 454 485 524 b 668 378 647 524 668 454 l 668 0 z m 282 983 l 81 983 l -12 713 l 163 713 z "},"μ":{"ha":925,"x_min":0,"x_max":0,"o":"m 124 692 l 124 -314 l 349 -314 l 349 18 b 436 -10 368 0 403 -10 b 590 79 518 -10 563 31 l 592 79 l 592 0 l 807 0 l 807 692 l 582 692 l 582 329 b 456 175 582 246 549 175 b 349 347 363 175 349 285 l 349 692 z "},"∑":{"ha":925,"x_min":0,"x_max":0,"o":"m 894 -297 l 894 -112 l 296 -112 l 675 407 l 319 907 l 878 907 l 878 1092 l 53 1092 l 53 938 l 442 406 l 36 -143 l 36 -297 z "},"ŕ":{"ha":550,"x_min":0,"x_max":0,"o":"m 547 706 b 499 711 536 710 517 711 b 311 592 414 711 346 661 l 308 592 l 308 692 l 89 692 l 89 0 l 317 0 l 317 356 b 479 513 317 413 357 513 b 538 506 497 513 517 511 z m 524 994 l 293 994 l 149 794 l 321 794 z "},"™":{"ha":1389,"x_min":0,"x_max":0,"o":"m 1317 411 l 1317 983 l 1108 983 l 981 622 l 849 983 l 640 983 l 640 411 l 786 411 l 786 771 l 789 771 l 922 411 l 1032 411 l 1167 771 l 1169 771 l 1169 411 z m 536 851 l 536 983 l 56 983 l 56 851 l 219 851 l 219 411 l 372 411 l 372 851 z "},"Ú":{"ha":1025,"x_min":0,"x_max":0,"o":"m 935 371 l 935 983 l 697 983 l 697 390 b 513 188 697 285 647 188 b 328 390 379 188 328 285 l 328 983 l 92 983 l 92 371 b 511 -26 92 135 253 -26 b 935 371 768 -26 935 135 z m 754 1261 l 524 1261 l 379 1061 l 551 1061 z "},"ļ":{"ha":414,"x_min":0,"x_max":0,"o":"m 322 0 l 322 1050 l 92 1050 l 92 0 z m 310 -62 l 108 -62 l 15 -333 l 190 -333 z "},"ī":{"ha":411,"x_min":0,"x_max":0,"o":"m 319 0 l 319 692 l 92 692 l 92 0 z m 442 835 l 442 954 l -25 954 l -25 835 z "},"ț":{"ha":517,"x_min":0,"x_max":0,"o":"m 499 521 l 499 692 l 336 692 l 336 874 l 113 874 l 113 692 l 3 692 l 3 521 l 114 521 l 114 229 b 360 -17 114 82 175 -17 b 492 4 408 -17 461 -7 l 489 171 b 422 160 472 164 444 160 b 336 257 357 160 336 193 l 336 521 z m 400 -62 l 199 -62 l 106 -333 l 281 -333 z "},"Å":{"ha":1013,"x_min":0,"x_max":0,"o":"m 1032 0 l 624 983 l 393 983 l -19 0 l 239 0 l 311 193 l 692 193 l 768 0 z m 626 383 l 379 383 l 504 721 z m 661 1189 b 510 1338 661 1274 593 1338 b 358 1188 425 1338 358 1274 b 510 1040 358 1103 426 1040 b 661 1189 593 1040 661 1103 z m 592 1189 b 510 1108 592 1143 556 1108 b 428 1188 464 1108 428 1143 b 510 1269 428 1233 463 1269 b 592 1189 556 1269 592 1235 z "},"ó":{"ha":878,"x_min":0,"x_max":0,"o":"m 822 349 b 438 714 822 575 647 714 b 54 349 229 714 54 575 b 438 -22 54 122 229 -22 b 822 349 647 -22 822 122 z m 603 349 b 439 169 603 260 546 169 b 275 349 332 169 275 260 b 438 525 275 438 331 525 b 603 349 544 525 603 438 z m 694 994 l 464 994 l 319 794 l 492 794 z "},"ņ":{"ha":856,"x_min":0,"x_max":0,"o":"m 772 0 l 772 428 b 519 711 772 567 706 711 b 313 596 424 711 344 657 l 310 596 l 310 692 l 89 692 l 89 0 l 318 0 l 318 375 b 440 524 318 454 360 524 b 543 378 522 524 543 454 l 543 0 z m 526 -62 l 325 -62 l 232 -333 l 407 -333 z "},"ń":{"ha":856,"x_min":0,"x_max":0,"o":"m 772 0 l 772 428 b 519 711 772 567 706 711 b 313 596 424 711 344 657 l 310 596 l 310 692 l 89 692 l 89 0 l 318 0 l 318 375 b 440 524 318 454 360 524 b 543 378 522 524 543 454 l 543 0 z m 672 994 l 442 994 l 297 794 l 469 794 z "},"į":{"ha":411,"x_min":0,"x_max":0,"o":"m 346 -272 l 301 -186 b 225 -214 278 -203 251 -214 b 174 -164 196 -214 174 -193 b 299 0 174 -115 229 -56 l 319 0 l 319 692 l 92 692 l 92 0 l 171 0 b 29 -201 106 -47 29 -122 b 186 -328 29 -292 111 -328 b 346 -272 244 -328 303 -304 z m 336 913 b 206 1038 336 982 278 1038 b 75 913 132 1038 75 979 b 206 788 75 844 132 788 b 336 913 278 788 336 842 z "},"ħ":{"ha":857,"x_min":0,"x_max":0,"o":"m 774 0 l 774 428 b 521 711 774 567 708 711 b 322 604 425 711 353 660 l 319 604 l 319 792 l 526 792 l 526 915 l 319 915 l 319 1050 l 92 1050 l 92 915 l 28 915 l 28 792 l 92 792 l 92 0 l 319 0 l 319 374 b 443 521 319 456 364 521 b 544 375 525 521 544 453 l 544 0 z "},"ĳ":{"ha":818,"x_min":0,"x_max":0,"o":"m 336 913 b 206 1038 336 982 278 1038 b 75 913 132 1038 75 979 b 206 788 75 844 132 788 b 336 913 278 788 336 842 z m 319 0 l 319 692 l 92 692 l 92 0 z m 743 913 b 613 1038 743 982 685 1038 b 482 913 539 1038 482 979 b 613 788 482 844 539 788 b 743 913 685 788 743 842 z m 726 -18 l 726 692 l 499 692 l 499 -18 b 415 -139 499 -89 482 -139 b 367 -132 403 -139 383 -137 l 351 -322 b 450 -333 376 -329 419 -333 b 726 -18 674 -333 726 -189 z "},"ŵ":{"ha":1210,"x_min":0,"x_max":0,"o":"m 1210 692 l 974 692 l 853 254 l 850 254 l 722 692 l 493 692 l 369 254 l 365 254 l 246 692 l 0 692 l 239 0 l 468 0 l 601 431 l 604 431 l 740 0 l 969 0 z m 882 794 l 713 994 l 507 994 l 335 794 l 513 794 l 607 907 l 701 794 z "},"Ŭ":{"ha":1025,"x_min":0,"x_max":0,"o":"m 935 371 l 935 983 l 697 983 l 697 390 b 513 188 697 285 647 188 b 328 390 379 188 328 285 l 328 983 l 92 983 l 92 371 b 511 -26 92 135 253 -26 b 935 371 768 -26 935 135 z m 756 1261 l 639 1261 b 514 1185 626 1196 576 1185 b 389 1261 457 1185 399 1201 l 272 1261 b 513 1061 282 1115 386 1061 b 756 1261 642 1061 743 1117 z "},"Ĉ":{"ha":967,"x_min":0,"x_max":0,"o":"m 967 136 l 801 292 b 593 192 760 233 686 192 b 314 493 429 192 314 314 b 597 794 314 667 432 794 b 796 704 672 794 751 765 l 957 865 b 589 1010 875 960 726 1010 b 56 493 289 1010 56 808 b 585 -26 56 185 282 -26 b 967 136 750 -26 881 36 z m 868 1061 l 699 1261 l 493 1261 l 321 1061 l 499 1061 l 593 1174 l 688 1061 z "},"ì":{"ha":411,"x_min":0,"x_max":0,"o":"m 319 0 l 319 692 l 92 692 l 92 0 z m 317 794 l 172 994 l -58 994 l 144 794 z "},"Ċ":{"ha":967,"x_min":0,"x_max":0,"o":"m 967 136 l 801 292 b 593 192 760 233 686 192 b 314 493 429 192 314 314 b 597 794 314 667 432 794 b 796 704 672 794 751 765 l 957 865 b 589 1010 875 960 726 1010 b 56 493 289 1010 56 808 b 585 -26 56 185 282 -26 b 967 136 750 -26 881 36 z m 715 1179 b 590 1299 715 1246 660 1299 b 467 1179 521 1299 467 1243 b 590 1061 467 1115 521 1061 b 715 1179 660 1061 715 1113 z "},"π":{"ha":925,"x_min":0,"x_max":0,"o":"m 871 25 l 871 179 b 808 163 846 168 825 163 b 760 222 769 163 760 193 l 760 501 l 868 501 l 868 692 l 47 692 l 47 501 l 143 501 l 143 0 l 374 0 l 374 501 l 533 501 l 533 182 b 706 -10 533 75 569 -10 b 871 25 768 -10 821 0 z "},"ū":{"ha":853,"x_min":0,"x_max":0,"o":"m 764 0 l 764 692 l 536 692 l 536 318 b 414 169 536 239 493 169 b 311 317 331 169 311 239 l 311 692 l 82 692 l 82 264 b 333 -19 82 125 147 -19 b 542 96 431 -19 510 35 l 544 96 l 544 0 z m 656 835 l 656 954 l 189 954 l 189 835 z "},"Ũ":{"ha":1025,"x_min":0,"x_max":0,"o":"m 935 371 l 935 983 l 697 983 l 697 390 b 513 188 697 285 647 188 b 328 390 379 188 328 285 l 328 983 l 92 983 l 92 371 b 511 -26 92 135 253 -26 b 935 371 768 -26 935 135 z m 776 1250 l 678 1250 b 619 1193 669 1217 654 1193 b 529 1221 594 1193 568 1203 b 418 1249 493 1238 457 1249 b 261 1068 317 1249 274 1164 l 361 1068 b 419 1124 369 1097 386 1124 b 507 1096 444 1124 469 1115 b 619 1067 543 1079 581 1067 b 776 1250 721 1067 765 1153 z "},"≤":{"ha":925,"x_min":0,"x_max":0,"o":"m 815 25 l 815 196 l 110 196 l 110 25 z m 815 214 l 815 404 l 390 581 l 815 763 l 815 951 l 110 654 l 110 511 z "}," ":{"ha":347,"x_min":0,"x_max":0,"o":""},"Ŵ":{"ha":1424,"x_min":0,"x_max":0,"o":"m 1424 983 l 1176 983 l 1018 329 l 1014 329 l 838 983 l 590 983 l 415 329 l 411 329 l 256 983 l 0 983 l 279 0 l 515 0 l 710 665 l 714 665 l 908 0 l 1143 0 z m 989 1061 l 819 1261 l 614 1261 l 442 1061 l 619 1061 l 714 1174 l 808 1061 z "},"¹":{"ha":583,"x_min":0,"x_max":0,"o":"m 413 378 l 413 983 l 265 983 l 64 835 l 147 722 l 250 803 l 250 378 z "},"¾":{"ha":1306,"x_min":0,"x_max":0,"o":"m 1225 115 l 1225 246 l 1144 246 l 1144 606 l 963 606 l 719 244 l 719 115 l 997 115 l 997 0 l 1144 0 l 1144 115 z m 997 246 l 874 246 l 996 432 l 997 432 z m 974 971 l 847 1026 l 314 13 l 435 -42 z m 526 561 b 433 700 526 626 493 679 b 513 832 481 724 513 769 b 300 1000 513 949 410 1000 b 72 836 200 1000 103 944 l 218 801 b 289 868 226 842 256 868 b 353 815 326 868 353 847 b 263 751 353 767 313 751 l 213 751 l 213 635 l 258 635 b 367 569 313 635 367 624 b 289 506 367 522 326 506 b 200 579 242 506 213 539 l 54 540 b 299 371 89 419 189 371 b 526 561 408 371 526 428 z "},"Ω":{"ha":1071,"x_min":0,"x_max":0,"o":"m 1000 0 l 1000 200 l 768 200 l 768 215 b 1000 565 919 260 1000 397 b 535 1001 1000 829 790 1001 b 71 563 281 1001 71 825 b 133 343 71 479 93 404 b 303 215 172 283 231 238 l 303 200 l 71 200 l 71 0 l 475 0 l 475 304 b 294 561 369 336 294 433 b 538 806 294 713 410 806 b 778 563 663 806 778 711 b 732 397 778 500 763 443 b 596 304 701 351 656 318 l 596 0 z "},"Û":{"ha":1025,"x_min":0,"x_max":0,"o":"m 935 371 l 935 983 l 697 983 l 697 390 b 513 188 697 285 647 188 b 328 390 379 188 328 285 l 328 983 l 92 983 l 92 371 b 511 -26 92 135 253 -26 b 935 371 768 -26 935 135 z m 788 1061 l 618 1261 l 413 1261 l 240 1061 l 418 1061 l 513 1174 l 607 1061 z "},"ž":{"ha":711,"x_min":0,"x_max":0,"o":"m 664 0 l 664 176 l 315 176 l 650 521 l 650 692 l 60 692 l 60 517 l 372 517 l 47 178 l 47 0 z m 638 994 l 460 994 l 365 882 l 271 994 l 90 994 l 263 794 l 467 794 z "},"Ý":{"ha":929,"x_min":0,"x_max":0,"o":"m 957 983 l 679 983 l 469 619 l 260 983 l -28 983 l 342 417 l 342 0 l 579 0 l 579 417 z m 754 1261 l 524 1261 l 379 1061 l 551 1061 z "},"ŧ":{"ha":517,"x_min":0,"x_max":0,"o":"m 471 299 l 471 422 l 336 422 l 336 521 l 499 521 l 499 692 l 336 692 l 336 874 l 113 874 l 113 692 l 3 692 l 3 521 l 114 521 l 114 422 l 15 422 l 15 299 l 114 299 l 114 229 b 360 -17 114 82 175 -17 b 492 4 408 -17 461 -7 l 489 171 b 422 160 472 164 444 160 b 336 257 357 160 336 193 l 336 299 z "},"î":{"ha":411,"x_min":0,"x_max":0,"o":"m 319 0 l 319 692 l 92 692 l 92 0 z m 483 794 l 314 994 l 108 994 l -64 794 l 114 794 l 208 907 l 303 794 z "},"ĩ":{"ha":411,"x_min":0,"x_max":0,"o":"m 319 0 l 319 692 l 92 692 l 92 0 z m 465 983 l 367 983 b 308 926 358 950 343 926 b 218 954 283 926 257 936 b 107 982 182 971 146 982 b -50 801 6 982 -37 897 l 50 801 b 108 857 58 831 75 857 b 196 829 133 857 158 849 b 308 800 232 813 269 800 b 465 983 410 800 454 886 z "},"ș":{"ha":656,"x_min":0,"x_max":0,"o":"m 621 617 b 343 714 553 681 446 714 b 56 482 211 714 56 647 b 257 281 56 351 161 303 b 394 201 351 258 394 244 b 313 142 394 157 350 142 b 143 219 246 142 183 175 l 15 85 b 317 -22 88 15 204 -22 b 613 214 458 -22 613 39 b 392 425 613 349 497 401 b 265 494 303 444 265 456 b 351 550 265 535 308 550 b 496 488 407 550 460 522 z m 422 -62 l 221 -62 l 128 -333 l 303 -333 z "},"Ã":{"ha":1013,"x_min":0,"x_max":0,"o":"m 1032 0 l 624 983 l 393 983 l -19 0 l 239 0 l 311 193 l 692 193 l 768 0 z m 626 383 l 379 383 l 504 721 z m 765 1250 l 667 1250 b 608 1193 658 1217 643 1193 b 518 1221 583 1193 557 1203 b 407 1249 482 1238 446 1249 b 250 1068 306 1249 263 1164 l 350 1068 b 408 1124 358 1097 375 1124 b 496 1096 433 1124 458 1115 b 608 1067 532 1079 569 1067 b 765 1250 710 1067 754 1153 z "},"ġ":{"ha":914,"x_min":0,"x_max":0,"o":"m 822 65 l 822 692 l 607 692 l 607 603 l 604 603 b 383 711 556 676 469 711 b 54 349 175 711 54 540 b 385 -7 54 157 175 -7 b 594 85 476 -7 551 29 l 599 85 l 599 43 b 403 -150 599 -72 536 -150 b 174 -62 325 -150 240 -121 l 60 -225 b 415 -333 153 -294 294 -333 b 822 65 661 -333 822 -206 z m 606 350 b 438 174 606 256 542 174 b 275 350 335 174 275 258 b 438 525 275 446 335 525 b 606 350 540 525 606 444 z m 571 913 b 446 1032 571 979 515 1032 b 322 913 376 1032 322 976 b 446 794 322 849 376 794 b 571 913 515 794 571 846 z "},"û":{"ha":853,"x_min":0,"x_max":0,"o":"m 764 0 l 764 692 l 536 692 l 536 318 b 414 169 536 239 493 169 b 311 317 331 169 311 239 l 311 692 l 82 692 l 82 264 b 333 -19 82 125 147 -19 b 542 96 431 -19 510 35 l 544 96 l 544 0 z m 701 794 l 532 994 l 326 994 l 154 794 l 332 794 l 426 907 l 521 794 z "},"ù":{"ha":853,"x_min":0,"x_max":0,"o":"m 764 0 l 764 692 l 536 692 l 536 318 b 414 169 536 239 493 169 b 311 317 331 169 311 239 l 311 692 l 82 692 l 82 264 b 333 -19 82 125 147 -19 b 542 96 431 -19 510 35 l 544 96 l 544 0 z m 567 794 l 422 994 l 192 994 l 394 794 z "},"Ţ":{"ha":807,"x_min":0,"x_max":0,"o":"m 800 781 l 800 983 l 7 983 l 7 781 l 285 781 l 285 0 l 522 0 l 522 781 z m 507 -62 l 306 -62 l 213 -333 l 388 -333 z "},"Ž":{"ha":882,"x_min":0,"x_max":0,"o":"m 829 0 l 829 206 l 340 206 l 819 793 l 819 983 l 65 983 l 65 782 l 522 782 l 54 206 l 54 0 z m 717 1261 l 539 1261 l 444 1149 l 350 1261 l 169 1261 l 342 1061 l 546 1061 z "},"á":{"ha":786,"x_min":0,"x_max":0,"o":"m 497 278 b 354 136 497 192 446 136 b 256 207 308 136 256 154 b 468 301 256 289 368 301 l 497 301 z m 194 474 b 365 544 236 513 300 544 b 490 444 436 544 490 513 l 490 433 b 46 200 289 433 46 400 b 297 -17 46 38 188 -17 b 493 74 379 -17 458 17 l 497 74 l 497 0 l 706 0 l 706 349 b 388 714 706 600 619 714 b 79 597 275 714 160 674 z m 636 994 l 406 994 l 261 794 l 433 794 z "},"Ô":{"ha":1182,"x_min":0,"x_max":0,"o":"m 1126 496 b 590 1010 1126 811 899 1010 b 56 496 283 1010 56 811 b 590 -26 56 185 283 -26 b 1126 496 899 -26 1126 185 z m 872 496 b 590 190 872 318 756 190 b 310 496 425 190 310 318 b 590 796 310 668 424 796 b 872 496 757 796 872 668 z m 865 1061 l 696 1261 l 490 1261 l 318 1061 l 496 1061 l 590 1174 l 685 1061 z "},"Ó":{"ha":1182,"x_min":0,"x_max":0,"o":"m 1126 496 b 590 1010 1126 811 899 1010 b 56 496 283 1010 56 811 b 590 -26 56 185 283 -26 b 1126 496 899 -26 1126 185 z m 872 496 b 590 190 872 318 756 190 b 310 496 425 190 310 318 b 590 796 310 668 424 796 b 872 496 757 796 872 668 z m 840 1261 l 610 1261 l 465 1061 l 638 1061 z "},"ů":{"ha":853,"x_min":0,"x_max":0,"o":"m 764 0 l 764 692 l 536 692 l 536 318 b 414 169 536 239 493 169 b 311 317 331 169 311 239 l 311 692 l 82 692 l 82 264 b 333 -19 82 125 147 -19 b 542 96 431 -19 510 35 l 544 96 l 544 0 z m 575 922 b 424 1071 575 1007 507 1071 b 272 921 339 1071 272 1007 b 424 774 272 836 340 774 b 575 922 507 774 575 836 z m 506 922 b 424 842 506 876 469 842 b 342 921 378 842 342 876 b 424 1003 342 967 376 1003 b 506 922 469 1003 506 968 z "},"ú":{"ha":853,"x_min":0,"x_max":0,"o":"m 764 0 l 764 692 l 536 692 l 536 318 b 414 169 536 239 493 169 b 311 317 331 169 311 239 l 311 692 l 82 692 l 82 264 b 333 -19 82 125 147 -19 b 542 96 431 -19 510 35 l 544 96 l 544 0 z m 679 994 l 449 994 l 304 794 l 476 794 z "},"ŏ":{"ha":878,"x_min":0,"x_max":0,"o":"m 822 349 b 438 714 822 575 647 714 b 54 349 229 714 54 575 b 438 -22 54 122 229 -22 b 822 349 647 -22 822 122 z m 603 349 b 439 169 603 260 546 169 b 275 349 332 169 275 260 b 438 525 275 438 331 525 b 603 349 544 525 603 438 z m 678 994 l 561 994 b 436 918 549 929 499 918 b 356 933 408 918 379 922 b 311 994 333 946 317 965 l 194 994 b 435 794 204 849 308 794 b 678 994 564 794 665 850 z "},"ˉ":{"ha":417,"x_min":0,"x_max":0,"o":"m 442 1101 l 442 1221 l -25 1221 l -25 1101 z "},"µ":{"ha":925,"x_min":0,"x_max":0,"o":"m 124 692 l 124 -314 l 349 -314 l 349 18 b 436 -10 368 0 403 -10 b 590 79 518 -10 563 31 l 592 79 l 592 0 l 807 0 l 807 692 l 582 692 l 582 329 b 456 175 582 246 549 175 b 349 347 363 175 349 285 l 349 692 z "},"Ŕ":{"ha":921,"x_min":0,"x_max":0,"o":"m 906 0 l 649 421 b 853 686 775 460 853 554 b 476 983 853 911 665 983 l 101 983 l 101 0 l 335 0 l 335 390 l 415 390 l 628 0 z m 618 682 b 446 563 618 582 522 563 l 333 563 l 333 792 l 460 792 b 618 682 531 792 618 774 z m 689 1261 l 458 1261 l 314 1061 l 486 1061 z "},"Ď":{"ha":1075,"x_min":0,"x_max":0,"o":"m 1019 494 b 457 983 1019 867 736 983 l 101 983 l 101 0 l 468 0 b 1019 494 739 0 1019 149 z m 772 494 b 446 206 772 275 615 206 l 333 206 l 333 781 l 451 781 b 772 494 615 781 772 715 z m 769 1261 l 592 1261 l 497 1149 l 403 1261 l 222 1261 l 394 1061 l 599 1061 z "},"±":{"ha":925,"x_min":0,"x_max":0,"o":"m 856 460 l 856 636 l 561 636 l 561 819 l 381 819 l 381 636 l 85 636 l 85 460 l 381 460 l 381 276 l 561 276 l 561 460 z m 856 43 l 856 219 l 85 219 l 85 43 z "},"ă":{"ha":786,"x_min":0,"x_max":0,"o":"m 497 278 b 354 136 497 192 446 136 b 256 207 308 136 256 154 b 468 301 256 289 368 301 l 497 301 z m 194 474 b 365 544 236 513 300 544 b 490 444 436 544 490 513 l 490 433 b 46 200 289 433 46 400 b 297 -17 46 38 188 -17 b 493 74 379 -17 458 17 l 497 74 l 497 0 l 706 0 l 706 349 b 388 714 706 600 619 714 b 79 597 275 714 160 674 z m 639 994 l 522 994 b 397 918 510 929 460 918 b 317 933 369 918 340 922 b 272 994 294 946 278 965 l 156 994 b 396 794 165 849 269 794 b 639 994 525 794 626 850 z "},"Ą":{"ha":1013,"x_min":0,"x_max":0,"o":"m 944 -272 l 900 -186 b 824 -214 876 -203 850 -214 b 772 -164 794 -214 772 -193 b 897 0 772 -115 828 -56 l 1032 0 l 624 983 l 393 983 l -19 0 l 239 0 l 311 193 l 692 193 l 768 0 l 769 0 b 628 -201 704 -47 628 -122 b 785 -328 628 -292 710 -328 b 944 -272 843 -328 901 -304 z m 626 383 l 379 383 l 504 721 z "},"◊":{"ha":842,"x_min":0,"x_max":0,"o":"m 758 494 l 503 1038 l 338 1038 l 85 494 l 336 -49 l 503 -49 z m 563 494 l 419 160 l 279 494 l 419 829 z "},"ż":{"ha":711,"x_min":0,"x_max":0,"o":"m 664 0 l 664 176 l 315 176 l 650 521 l 650 692 l 60 692 l 60 517 l 372 517 l 47 178 l 47 0 z m 485 913 b 360 1032 485 979 429 1032 b 236 913 290 1032 236 976 b 360 794 236 849 290 794 b 485 913 429 794 485 846 z "},"É":{"ha":843,"x_min":0,"x_max":0,"o":"m 788 0 l 788 203 l 331 203 l 331 407 l 739 407 l 739 597 l 331 597 l 331 782 l 763 782 l 763 983 l 101 983 l 101 0 z m 699 1261 l 468 1261 l 324 1061 l 496 1061 z "},"Ÿ":{"ha":929,"x_min":0,"x_max":0,"o":"m 957 983 l 679 983 l 469 619 l 260 983 l -28 983 l 342 417 l 342 0 l 579 0 l 579 417 z m 736 1181 b 621 1293 736 1243 683 1293 b 506 1181 556 1293 506 1240 b 621 1067 506 1118 556 1067 b 736 1181 683 1067 736 1117 z m 435 1181 b 318 1293 435 1243 382 1293 b 203 1181 254 1293 203 1240 b 318 1067 203 1118 254 1067 b 435 1181 382 1067 435 1117 z "},"ź":{"ha":711,"x_min":0,"x_max":0,"o":"m 664 0 l 664 176 l 315 176 l 650 521 l 650 692 l 60 692 l 60 517 l 372 517 l 47 178 l 47 0 z m 615 994 l 385 994 l 240 794 l 413 794 z "},"Ź":{"ha":882,"x_min":0,"x_max":0,"o":"m 829 0 l 829 206 l 340 206 l 819 793 l 819 983 l 65 983 l 65 782 l 522 782 l 54 206 l 54 0 z m 718 1261 l 488 1261 l 343 1061 l 515 1061 z "},"−":{"ha":925,"x_min":0,"x_max":0,"o":"m 831 336 l 831 507 l 94 507 l 94 336 z "},"ų":{"ha":853,"x_min":0,"x_max":0,"o":"m 719 -272 l 675 -186 b 599 -214 651 -203 625 -214 b 547 -164 569 -214 547 -193 b 672 0 547 -115 603 -56 l 764 0 l 764 692 l 536 692 l 536 318 b 414 169 536 239 493 169 b 311 317 331 169 311 239 l 311 692 l 82 692 l 82 264 b 333 -19 82 125 147 -19 b 542 96 431 -19 510 35 l 544 96 l 544 0 b 403 -201 479 -47 403 -122 b 560 -328 403 -292 485 -328 b 719 -272 618 -328 676 -304 z "},"Đ":{"ha":1075,"x_min":0,"x_max":0,"o":"m 1017 494 b 482 983 1017 844 761 983 l 103 983 l 103 578 l 18 578 l 18 429 l 103 429 l 103 0 l 481 0 b 1017 494 739 0 1017 154 z m 774 494 b 438 208 774 290 631 208 l 335 208 l 335 429 l 586 429 l 586 578 l 335 578 l 335 776 l 460 776 b 774 494 644 776 774 689 z "},"∕":{"ha":139,"x_min":0,"x_max":0,"o":"m 390 971 l 269 1028 l -269 13 l -149 -42 z "},"Ų":{"ha":1025,"x_min":0,"x_max":0,"o":"m 671 -272 l 626 -186 b 550 -214 603 -203 576 -214 b 499 -164 521 -214 499 -193 b 600 -19 499 -121 543 -69 b 935 371 806 14 935 163 l 935 983 l 697 983 l 697 390 b 513 188 697 285 647 188 b 328 390 379 188 328 285 l 328 983 l 92 983 l 92 371 b 465 -24 92 149 233 -6 b 354 -201 408 -71 354 -135 b 511 -328 354 -292 436 -328 b 671 -272 569 -328 628 -304 z "},"ě":{"ha":828,"x_min":0,"x_max":0,"o":"m 272 425 b 429 557 278 496 342 557 b 565 425 519 557 565 497 z m 775 338 b 428 714 775 574 632 714 b 54 343 218 714 54 569 b 435 -22 54 110 226 -22 b 749 125 575 -22 683 31 l 590 225 b 438 153 560 183 510 153 b 272 283 356 153 279 207 l 774 283 b 775 338 775 300 775 319 z m 707 994 l 529 994 l 435 882 l 340 994 l 160 994 l 332 794 l 536 794 z "},"Ā":{"ha":1013,"x_min":0,"x_max":0,"o":"m 1032 0 l 624 983 l 393 983 l -19 0 l 239 0 l 311 193 l 692 193 l 768 0 z m 626 383 l 379 383 l 504 721 z m 739 1101 l 739 1221 l 272 1221 l 272 1101 z "},"Ö":{"ha":1182,"x_min":0,"x_max":0,"o":"m 1126 496 b 590 1010 1126 811 899 1010 b 56 496 283 1010 56 811 b 590 -26 56 185 283 -26 b 1126 496 899 -26 1126 185 z m 872 496 b 590 190 872 318 756 190 b 310 496 425 190 310 318 b 590 796 310 668 424 796 b 872 496 757 796 872 668 z m 858 1181 b 743 1293 858 1243 806 1293 b 628 1181 678 1293 628 1240 b 743 1067 628 1118 678 1067 b 858 1181 806 1067 858 1117 z m 557 1181 b 440 1293 557 1243 504 1293 b 325 1181 376 1293 325 1240 b 440 1067 325 1118 376 1067 b 557 1181 504 1067 557 1117 z "},"≈":{"ha":925,"x_min":0,"x_max":0,"o":"m 806 650 l 671 650 b 601 568 664 599 642 568 b 261 650 492 568 375 650 b 36 396 108 650 47 522 l 169 396 b 240 472 178 435 201 472 b 582 383 325 472 471 383 b 806 650 708 383 790 481 z m 804 343 l 669 343 b 601 272 660 303 639 272 b 253 357 488 272 368 357 b 33 92 106 357 44 219 l 167 92 b 239 178 175 142 200 178 b 583 88 322 178 471 88 b 804 343 738 88 790 224 z "},"Ů":{"ha":1025,"x_min":0,"x_max":0,"o":"m 935 371 l 935 983 l 697 983 l 697 390 b 513 188 697 285 647 188 b 328 390 379 188 328 285 l 328 983 l 92 983 l 92 371 b 511 -26 92 135 253 -26 b 935 371 768 -26 935 135 z m 671 1189 b 519 1338 671 1274 603 1338 b 368 1188 435 1338 368 1274 b 519 1040 368 1103 436 1040 b 671 1189 603 1040 671 1103 z m 601 1189 b 519 1108 601 1143 565 1108 b 438 1188 474 1108 438 1143 b 519 1269 438 1233 472 1269 b 601 1189 565 1269 601 1235 z "},"ü":{"ha":853,"x_min":0,"x_max":0,"o":"m 764 0 l 764 692 l 536 692 l 536 318 b 414 169 536 239 493 169 b 311 317 331 169 311 239 l 311 692 l 82 692 l 82 264 b 333 -19 82 125 147 -19 b 542 96 431 -19 510 35 l 544 96 l 544 0 z m 693 914 b 578 1026 693 976 640 1026 b 463 914 513 1026 463 974 b 578 800 463 851 513 800 b 693 914 640 800 693 850 z m 392 914 b 275 1026 392 976 339 1026 b 160 914 211 1026 160 974 b 275 800 160 851 211 800 b 392 914 339 800 392 850 z "},"ŝ":{"ha":656,"x_min":0,"x_max":0,"o":"m 621 617 b 343 714 553 681 446 714 b 56 482 211 714 56 647 b 257 281 56 351 161 303 b 394 201 351 258 394 244 b 313 142 394 157 350 142 b 143 219 246 142 183 175 l 15 85 b 317 -22 88 15 204 -22 b 613 214 458 -22 613 39 b 392 425 613 349 497 401 b 265 494 303 444 265 456 b 351 550 265 535 308 550 b 496 488 407 550 460 522 z m 618 794 l 449 994 l 243 994 l 71 794 l 249 794 l 343 907 l 438 794 z "},"∫":{"ha":879,"x_min":0,"x_max":0,"o":"m 721 967 b 550 1090 721 1058 614 1090 b 314 704 321 1090 314 868 l 314 63 l 314 15 b 317 -96 314 -21 318 -58 b 300 -161 317 -115 318 -151 b 203 -81 271 -151 274 -81 b 117 -144 161 -81 126 -107 b 110 -169 113 -151 110 -160 b 282 -297 110 -264 213 -297 b 513 0 468 -297 507 -146 b 515 157 515 51 515 106 l 515 768 b 513 883 515 807 513 844 b 528 957 513 904 511 942 b 629 874 558 946 557 874 b 721 967 683 874 721 915 z "},"ý":{"ha":788,"x_min":0,"x_max":0,"o":"m 789 692 l 547 692 l 410 247 l 406 247 l 251 692 l -1 692 l 288 11 l 265 -46 b 149 -139 243 -106 219 -139 b 75 -126 126 -139 97 -133 l 50 -318 b 175 -333 83 -326 132 -333 b 479 -104 349 -333 424 -249 z m 678 994 l 447 994 l 303 794 l 475 794 z "},"Ū":{"ha":1025,"x_min":0,"x_max":0,"o":"m 935 371 l 935 983 l 697 983 l 697 390 b 513 188 697 285 647 188 b 328 390 379 188 328 285 l 328 983 l 92 983 l 92 371 b 511 -26 92 135 253 -26 b 935 371 768 -26 935 135 z m 753 1101 l 753 1221 l 286 1221 l 286 1101 z "},"í":{"ha":411,"x_min":0,"x_max":0,"o":"m 319 0 l 319 692 l 92 692 l 92 0 z m 468 994 l 238 994 l 93 794 l 265 794 z "},"Ë":{"ha":843,"x_min":0,"x_max":0,"o":"m 788 0 l 788 203 l 331 203 l 331 407 l 739 407 l 739 597 l 331 597 l 331 782 l 763 782 l 763 983 l 101 983 l 101 0 z m 704 1181 b 589 1293 704 1243 651 1293 b 474 1181 524 1293 474 1240 b 589 1067 474 1118 524 1067 b 704 1181 651 1067 704 1117 z m 403 1181 b 286 1293 403 1243 350 1293 b 171 1181 222 1293 171 1240 b 286 1067 171 1118 222 1067 b 403 1181 350 1067 403 1117 z "},"Ò":{"ha":1182,"x_min":0,"x_max":0,"o":"m 1126 496 b 590 1010 1126 811 899 1010 b 56 496 283 1010 56 811 b 590 -26 56 185 283 -26 b 1126 496 899 -26 1126 185 z m 872 496 b 590 190 872 318 756 190 b 310 496 425 190 310 318 b 590 796 310 668 424 796 b 872 496 757 796 872 668 z m 732 1061 l 588 1261 l 357 1261 l 560 1061 z "},"Š":{"ha":821,"x_min":0,"x_max":0,"o":"m 772 888 b 450 1008 686 967 561 1008 b 69 700 267 1008 69 918 b 321 418 69 522 196 458 b 525 278 450 376 525 353 b 389 171 525 199 461 171 b 176 275 311 171 224 215 l 21 117 b 389 -25 107 26 249 -25 b 765 303 583 -25 765 76 b 460 599 765 499 593 556 b 308 714 367 628 308 649 b 446 813 308 792 385 813 b 621 728 507 813 581 779 z m 722 1261 l 544 1261 l 450 1149 l 356 1261 l 175 1261 l 347 1061 l 551 1061 z "},"ŀ":{"ha":622,"x_min":0,"x_max":0,"o":"m 322 0 l 322 1050 l 92 1050 l 92 0 z m 622 649 b 497 768 622 715 567 768 b 374 649 428 768 374 713 b 497 531 374 585 428 531 b 622 649 567 531 622 582 z "},"Ù":{"ha":1025,"x_min":0,"x_max":0,"o":"m 935 371 l 935 983 l 697 983 l 697 390 b 513 188 697 285 647 188 b 328 390 379 188 328 285 l 328 983 l 92 983 l 92 371 b 511 -26 92 135 253 -26 b 935 371 768 -26 935 135 z m 653 1061 l 508 1261 l 278 1261 l 481 1061 z "},"ℓ":{"ha":694,"x_min":0,"x_max":0,"o":"m 646 78 l 574 189 l 571 189 b 449 138 524 156 482 138 b 369 225 410 138 369 160 l 369 365 b 642 786 556 515 642 643 b 419 1001 642 914 556 1001 b 153 722 263 1001 153 878 l 153 399 l 1 279 l 76 163 l 79 163 l 154 225 l 154 190 b 394 -19 154 74 238 -19 b 646 78 488 -19 567 13 z m 467 774 b 369 546 467 697 442 619 l 369 764 b 418 860 369 819 390 860 b 467 774 449 860 467 819 z "},"È":{"ha":843,"x_min":0,"x_max":0,"o":"m 788 0 l 788 203 l 331 203 l 331 407 l 739 407 l 739 597 l 331 597 l 331 782 l 763 782 l 763 983 l 101 983 l 101 0 z m 564 1061 l 419 1261 l 189 1261 l 392 1061 z "},"ľ":{"ha":600,"x_min":0,"x_max":0,"o":"m 322 0 l 322 1050 l 92 1050 l 92 0 z m 657 983 l 456 983 l 363 713 l 538 713 z "},"Â":{"ha":1013,"x_min":0,"x_max":0,"o":"m 1032 0 l 624 983 l 393 983 l -19 0 l 239 0 l 311 193 l 692 193 l 768 0 z m 626 383 l 379 383 l 504 721 z m 783 1061 l 614 1261 l 408 1261 l 236 1061 l 414 1061 l 508 1174 l 603 1061 z "},"­":{"ha":453,"x_min":0,"x_max":0,"o":"m 403 274 l 403 454 l 50 454 l 50 274 z "},"ť":{"ha":600,"x_min":0,"x_max":0,"o":"m 499 521 l 499 692 l 336 692 l 336 874 l 113 874 l 113 692 l 3 692 l 3 521 l 114 521 l 114 229 b 360 -17 114 82 175 -17 b 492 4 408 -17 461 -7 l 489 171 b 422 160 472 164 444 160 b 336 257 357 160 336 193 l 336 521 z m 669 1015 l 468 1015 l 375 744 l 550 744 z "},"Ŧ":{"ha":807,"x_min":0,"x_max":0,"o":"m 800 781 l 800 983 l 7 983 l 7 781 l 285 781 l 285 663 l 103 663 l 103 539 l 285 539 l 285 0 l 522 0 l 522 539 l 711 539 l 711 663 l 522 663 l 522 781 z "},"Ō":{"ha":1182,"x_min":0,"x_max":0,"o":"m 1126 496 b 590 1010 1126 811 899 1010 b 56 496 283 1010 56 811 b 590 -26 56 185 283 -26 b 1126 496 899 -26 1126 185 z m 872 496 b 590 190 872 318 756 190 b 310 496 425 190 310 318 b 590 796 310 668 424 796 b 872 496 757 796 872 668 z m 821 1101 l 821 1221 l 354 1221 l 354 1101 z "},"Ŏ":{"ha":1182,"x_min":0,"x_max":0,"o":"m 1126 496 b 590 1010 1126 811 899 1010 b 56 496 283 1010 56 811 b 590 -26 56 185 283 -26 b 1126 496 899 -26 1126 185 z m 872 496 b 590 190 872 318 756 190 b 310 496 425 190 310 318 b 590 796 310 668 424 796 b 872 496 757 796 872 668 z m 831 1261 l 714 1261 b 589 1185 701 1196 651 1185 b 464 1261 532 1185 474 1201 l 347 1261 b 588 1061 357 1115 461 1061 b 831 1261 717 1061 818 1117 z "},"ķ":{"ha":826,"x_min":0,"x_max":0,"o":"m 554 379 l 821 692 l 544 692 l 324 411 l 319 411 l 319 1050 l 90 1050 l 90 0 l 319 0 l 319 332 l 324 332 l 550 0 l 832 0 z m 535 -62 l 333 -62 l 240 -333 l 415 -333 z "},"ĥ":{"ha":857,"x_min":0,"x_max":0,"o":"m 774 0 l 774 428 b 521 711 774 567 708 711 b 322 604 425 711 353 660 l 319 604 l 319 1050 l 92 1050 l 92 0 l 319 0 l 319 374 b 443 521 319 456 364 521 b 544 375 525 521 544 453 l 544 0 z m 711 1106 l 542 1306 l 336 1306 l 164 1106 l 342 1106 l 436 1218 l 531 1106 z "},"ŭ":{"ha":853,"x_min":0,"x_max":0,"o":"m 764 0 l 764 692 l 536 692 l 536 318 b 414 169 536 239 493 169 b 311 317 331 169 311 239 l 311 692 l 82 692 l 82 264 b 333 -19 82 125 147 -19 b 542 96 431 -19 510 35 l 544 96 l 544 0 z m 665 994 l 549 994 b 424 918 536 929 486 918 b 343 933 396 918 367 922 b 299 994 321 946 304 965 l 182 994 b 422 794 192 849 296 794 b 665 994 551 794 653 850 z "},"Ř":{"ha":921,"x_min":0,"x_max":0,"o":"m 906 0 l 649 421 b 853 686 775 460 853 554 b 476 983 853 911 665 983 l 101 983 l 101 0 l 335 0 l 335 390 l 415 390 l 628 0 z m 618 682 b 446 563 618 582 522 563 l 333 563 l 333 792 l 460 792 b 618 682 531 792 618 774 z m 718 1261 l 540 1261 l 446 1149 l 351 1261 l 171 1261 l 343 1061 l 547 1061 z "},"Þ":{"ha":889,"x_min":0,"x_max":0,"o":"m 847 513 b 463 815 847 738 678 815 l 339 815 l 339 983 l 101 983 l 101 0 l 339 0 l 339 203 l 457 203 b 847 513 663 203 847 285 z m 610 511 b 439 392 610 418 528 392 l 339 392 l 339 625 l 443 625 b 610 511 528 625 610 607 z "},"Ş":{"ha":821,"x_min":0,"x_max":0,"o":"m 579 -197 b 436 -82 579 -103 503 -82 b 411 -83 428 -82 421 -82 l 460 -19 b 765 303 625 1 765 104 b 460 599 765 499 593 556 b 308 714 367 628 308 649 b 446 813 308 792 385 813 b 621 728 507 813 581 779 l 772 888 b 450 1008 686 967 561 1008 b 69 700 267 1008 69 918 b 321 418 69 522 196 458 b 525 278 450 376 525 353 b 389 171 525 199 461 171 b 176 275 311 171 224 215 l 21 117 b 344 -24 97 35 219 -14 l 269 -124 l 313 -164 b 368 -156 329 -158 351 -156 b 433 -196 396 -156 433 -162 b 364 -242 433 -233 393 -242 b 247 -215 326 -242 282 -232 l 210 -299 b 375 -333 253 -319 318 -333 b 579 -197 463 -333 579 -304 z "},"Ğ":{"ha":1068,"x_min":0,"x_max":0,"o":"m 975 60 l 975 581 l 569 581 l 569 389 l 757 389 l 757 210 b 608 183 715 192 664 183 b 308 493 415 183 308 313 b 597 800 308 669 431 800 b 818 708 693 800 772 761 l 968 879 b 589 1010 886 958 743 1010 b 56 493 289 1010 56 808 b 596 -25 56 183 282 -25 b 975 60 747 -25 879 10 z m 847 1261 l 731 1261 b 606 1185 718 1196 668 1185 b 481 1261 549 1185 490 1201 l 364 1261 b 604 1061 374 1115 478 1061 b 847 1261 733 1061 835 1117 z "},"â":{"ha":786,"x_min":0,"x_max":0,"o":"m 497 278 b 354 136 497 192 446 136 b 256 207 308 136 256 154 b 468 301 256 289 368 301 l 497 301 z m 194 474 b 365 544 236 513 300 544 b 490 444 436 544 490 513 l 490 433 b 46 200 289 433 46 400 b 297 -17 46 38 188 -17 b 493 74 379 -17 458 17 l 497 74 l 497 0 l 706 0 l 706 349 b 388 714 706 600 619 714 b 79 597 275 714 160 674 z m 669 794 l 500 994 l 294 994 l 122 794 l 300 794 l 394 907 l 489 794 z "},"À":{"ha":1013,"x_min":0,"x_max":0,"o":"m 1032 0 l 624 983 l 393 983 l -19 0 l 239 0 l 311 193 l 692 193 l 768 0 z m 626 383 l 379 383 l 504 721 z m 610 1061 l 465 1261 l 235 1261 l 438 1061 z "},"Á":{"ha":1013,"x_min":0,"x_max":0,"o":"m 1032 0 l 624 983 l 393 983 l -19 0 l 239 0 l 311 193 l 692 193 l 768 0 z m 626 383 l 379 383 l 504 721 z m 783 1261 l 553 1261 l 408 1061 l 581 1061 z "},"Ē":{"ha":843,"x_min":0,"x_max":0,"o":"m 788 0 l 788 203 l 331 203 l 331 407 l 739 407 l 739 597 l 331 597 l 331 782 l 763 782 l 763 983 l 101 983 l 101 0 z m 664 1101 l 664 1221 l 197 1221 l 197 1101 z "},"¬":{"ha":925,"x_min":0,"x_max":0,"o":"m 842 201 l 842 626 l 71 626 l 71 456 l 661 456 l 661 201 z "},"Ç":{"ha":967,"x_min":0,"x_max":0,"o":"m 738 -197 b 594 -82 738 -103 661 -82 b 569 -83 586 -82 579 -82 l 614 -25 b 967 136 765 -18 886 42 l 801 292 b 593 192 760 233 686 192 b 314 493 429 192 314 314 b 597 794 314 667 432 794 b 796 704 672 794 751 765 l 957 865 b 589 1010 875 960 726 1010 b 56 493 289 1010 56 808 b 504 -21 56 213 243 13 l 428 -124 l 471 -164 b 526 -156 488 -158 510 -156 b 592 -196 554 -156 592 -162 b 522 -242 592 -233 551 -242 b 406 -215 485 -242 440 -232 l 368 -299 b 533 -333 411 -319 476 -333 b 738 -197 621 -333 738 -304 z "},"Ŗ":{"ha":921,"x_min":0,"x_max":0,"o":"m 906 0 l 649 421 b 853 686 775 460 853 554 b 476 983 853 911 665 983 l 101 983 l 101 0 l 335 0 l 335 390 l 415 390 l 628 0 z m 618 682 b 446 563 618 582 522 563 l 333 563 l 333 792 l 460 792 b 618 682 531 792 618 774 z m 574 -62 l 372 -62 l 279 -333 l 454 -333 z "},"Ĝ":{"ha":1068,"x_min":0,"x_max":0,"o":"m 975 60 l 975 581 l 569 581 l 569 389 l 757 389 l 757 210 b 608 183 715 192 664 183 b 308 493 415 183 308 313 b 597 800 308 669 431 800 b 818 708 693 800 772 761 l 968 879 b 589 1010 886 958 743 1010 b 56 493 289 1010 56 808 b 596 -25 56 183 282 -25 b 975 60 747 -25 879 10 z m 874 1061 l 704 1261 l 499 1261 l 326 1061 l 504 1061 l 599 1174 l 693 1061 z "},"Ű":{"ha":1025,"x_min":0,"x_max":0,"o":"m 935 371 l 935 983 l 697 983 l 697 390 b 513 188 697 285 647 188 b 328 390 379 188 328 285 l 328 983 l 92 983 l 92 371 b 511 -26 92 135 253 -26 b 935 371 768 -26 935 135 z m 953 1261 l 722 1261 l 578 1061 l 750 1061 z m 647 1261 l 417 1261 l 272 1061 l 444 1061 z "},"∂":{"ha":925,"x_min":0,"x_max":0,"o":"m 593 594 b 429 635 544 621 490 635 b 96 318 219 635 96 501 b 439 -18 96 121 238 -18 b 818 499 757 -18 818 279 b 415 1001 818 732 725 1001 b 117 872 303 1001 203 958 l 224 717 b 414 808 290 794 353 808 b 593 594 539 808 592 693 z m 583 406 l 583 388 b 443 167 583 281 544 167 b 326 308 374 167 326 225 b 456 456 326 394 371 456 b 583 406 499 456 542 438 z "},"∆":{"ha":986,"x_min":0,"x_max":0,"o":"m 974 0 l 579 983 l 385 983 l 13 0 z m 669 201 l 297 201 l 478 699 z "},"à":{"ha":786,"x_min":0,"x_max":0,"o":"m 497 278 b 354 136 497 192 446 136 b 256 207 308 136 256 154 b 468 301 256 289 368 301 l 497 301 z m 194 474 b 365 544 236 513 300 544 b 490 444 436 544 490 513 l 490 433 b 46 200 289 433 46 400 b 297 -17 46 38 188 -17 b 493 74 379 -17 458 17 l 497 74 l 497 0 l 706 0 l 706 349 b 388 714 706 600 619 714 b 79 597 275 714 160 674 z m 531 794 l 386 994 l 156 994 l 358 794 z "},"Ť":{"ha":807,"x_min":0,"x_max":0,"o":"m 800 781 l 800 983 l 7 983 l 7 781 l 285 781 l 285 0 l 522 0 l 522 781 z m 678 1261 l 500 1261 l 406 1149 l 311 1261 l 131 1261 l 303 1061 l 507 1061 z "},"š":{"ha":656,"x_min":0,"x_max":0,"o":"m 621 617 b 343 714 553 681 446 714 b 56 482 211 714 56 647 b 257 281 56 351 161 303 b 394 201 351 258 394 244 b 313 142 394 157 350 142 b 143 219 246 142 183 175 l 15 85 b 317 -22 88 15 204 -22 b 613 214 458 -22 613 39 b 392 425 613 349 497 401 b 265 494 303 444 265 456 b 351 550 265 535 308 550 b 496 488 407 550 460 522 z m 617 994 l 439 994 l 344 882 l 250 994 l 69 994 l 242 794 l 446 794 z "},"\r":{"ha":694,"x_min":0,"x_max":0,"o":""},"Ľ":{"ha":731,"x_min":0,"x_max":0,"o":"m 721 0 l 721 207 l 340 207 l 340 983 l 101 983 l 101 0 z m 675 983 l 474 983 l 381 713 l 556 713 z "},"ş":{"ha":656,"x_min":0,"x_max":0,"o":"m 504 -197 b 361 -82 504 -103 428 -82 b 336 -83 353 -82 346 -82 l 388 -17 b 613 214 506 0 613 68 b 392 425 613 349 497 401 b 265 494 303 444 265 456 b 351 550 265 535 308 550 b 496 488 407 550 460 522 l 621 617 b 343 715 553 681 446 715 b 56 482 211 715 56 647 b 257 281 56 351 161 303 b 394 201 351 258 394 244 b 313 142 394 157 350 142 b 143 219 246 142 183 175 l 15 85 b 272 -19 78 24 174 -11 l 194 -124 l 238 -164 b 293 -156 254 -158 276 -156 b 358 -196 321 -156 358 -162 b 289 -242 358 -233 318 -242 b 172 -215 251 -242 207 -232 l 135 -299 b 300 -333 178 -319 243 -333 b 504 -197 388 -333 504 -304 z "},"¼":{"ha":1306,"x_min":0,"x_max":0,"o":"m 1225 115 l 1225 246 l 1144 246 l 1144 606 l 963 606 l 719 244 l 719 115 l 997 115 l 997 0 l 1144 0 l 1144 115 z m 997 246 l 874 246 l 996 432 l 997 432 z m 974 971 l 847 1026 l 314 13 l 435 -42 z m 413 378 l 413 983 l 265 983 l 64 835 l 147 722 l 250 803 l 250 378 z "},"Ī":{"ha":442,"x_min":0,"x_max":0,"o":"m 340 0 l 340 983 l 101 983 l 101 0 z m 453 1101 l 453 1221 l -14 1221 l -14 1101 z "},"Ś":{"ha":821,"x_min":0,"x_max":0,"o":"m 772 888 b 450 1008 686 967 561 1008 b 69 700 267 1008 69 918 b 321 418 69 522 196 458 b 525 278 450 376 525 353 b 389 171 525 199 461 171 b 176 275 311 171 224 215 l 21 117 b 389 -25 107 26 249 -25 b 765 303 583 -25 765 76 b 460 599 765 499 593 556 b 308 714 367 628 308 649 b 446 813 308 792 385 813 b 621 728 507 813 581 779 z m 676 1261 l 446 1261 l 301 1061 l 474 1061 z "},"Ż":{"ha":882,"x_min":0,"x_max":0,"o":"m 829 0 l 829 206 l 340 206 l 819 793 l 819 983 l 65 983 l 65 782 l 522 782 l 54 206 l 54 0 z m 581 1179 b 456 1299 581 1246 525 1299 b 332 1179 386 1299 332 1243 b 456 1061 332 1115 386 1061 b 581 1179 525 1061 581 1113 z "},"Ă":{"ha":1013,"x_min":0,"x_max":0,"o":"m 1032 0 l 624 983 l 393 983 l -19 0 l 239 0 l 311 193 l 692 193 l 768 0 z m 626 383 l 379 383 l 504 721 z m 746 1261 l 629 1261 b 504 1185 617 1196 567 1185 b 379 1261 447 1185 389 1201 l 263 1261 b 503 1061 272 1115 376 1061 b 746 1261 632 1061 733 1117 z "},"∞":{"ha":1163,"x_min":0,"x_max":0,"o":"m 1100 369 b 847 629 1100 514 1006 629 b 582 476 728 629 649 556 b 315 628 514 556 436 628 b 63 368 157 628 63 513 b 321 106 63 219 163 106 b 582 247 439 106 511 172 b 846 104 650 172 732 104 b 1100 369 1007 104 1100 224 z m 936 365 b 847 269 936 311 903 269 b 685 364 783 269 728 317 b 843 464 725 407 783 464 b 936 365 901 464 936 422 z m 478 364 b 319 271 436 319 378 271 b 226 365 263 271 226 308 b 315 463 226 418 263 463 b 478 364 372 463 435 407 z "},"Δ":{"ha":986,"x_min":0,"x_max":0,"o":"m 974 0 l 579 983 l 385 983 l 13 0 z m 669 201 l 297 201 l 478 699 z "},"Ő":{"ha":1182,"x_min":0,"x_max":0,"o":"m 1126 496 b 590 1010 1126 811 899 1010 b 56 496 283 1010 56 811 b 590 -26 56 185 283 -26 b 1126 496 899 -26 1126 185 z m 872 496 b 590 190 872 318 756 190 b 310 496 425 190 310 318 b 590 796 310 668 424 796 b 872 496 757 796 872 668 z m 1021 1261 l 790 1261 l 646 1061 l 818 1061 z m 715 1261 l 485 1261 l 340 1061 l 513 1061 z "},"ä":{"ha":786,"x_min":0,"x_max":0,"o":"m 497 278 b 354 136 497 192 446 136 b 256 207 308 136 256 154 b 468 301 256 289 368 301 l 497 301 z m 194 474 b 365 544 236 513 300 544 b 490 444 436 544 490 513 l 490 433 b 46 200 289 433 46 400 b 297 -17 46 38 188 -17 b 493 74 379 -17 458 17 l 497 74 l 497 0 l 706 0 l 706 349 b 388 714 706 600 619 714 b 79 597 275 714 160 674 z m 663 914 b 547 1026 663 976 610 1026 b 432 914 482 1026 432 974 b 547 800 432 851 482 800 b 663 914 610 800 663 850 z m 361 914 b 244 1026 361 976 308 1026 b 129 914 181 1026 129 974 b 244 800 129 851 181 800 b 361 914 308 800 361 850 z "},"Ω":{"ha":1071,"x_min":0,"x_max":0,"o":"m 1000 0 l 1000 200 l 768 200 l 768 215 b 1000 565 919 260 1000 397 b 535 1001 1000 829 790 1001 b 71 563 281 1001 71 825 b 133 343 71 479 93 404 b 303 215 172 283 231 238 l 303 200 l 71 200 l 71 0 l 475 0 l 475 304 b 294 561 369 336 294 433 b 538 806 294 713 410 806 b 778 563 663 806 778 711 b 732 397 778 500 763 443 b 596 304 701 351 656 318 l 596 0 z "},"Ĕ":{"ha":843,"x_min":0,"x_max":0,"o":"m 788 0 l 788 203 l 331 203 l 331 407 l 739 407 l 739 597 l 331 597 l 331 782 l 763 782 l 763 983 l 101 983 l 101 0 z m 672 1261 l 556 1261 b 431 1185 543 1196 493 1185 b 306 1261 374 1185 315 1201 l 189 1261 b 429 1061 199 1115 303 1061 b 672 1261 558 1061 660 1117 z "},"Ê":{"ha":843,"x_min":0,"x_max":0,"o":"m 788 0 l 788 203 l 331 203 l 331 407 l 739 407 l 739 597 l 331 597 l 331 782 l 763 782 l 763 983 l 101 983 l 101 0 z m 711 1061 l 542 1261 l 336 1261 l 164 1061 l 342 1061 l 436 1174 l 531 1061 z "},"İ":{"ha":442,"x_min":0,"x_max":0,"o":"m 340 0 l 340 983 l 101 983 l 101 0 z m 346 1179 b 221 1299 346 1246 290 1299 b 97 1179 151 1299 97 1243 b 221 1061 97 1115 151 1061 b 346 1179 290 1061 346 1113 z "},"÷":{"ha":925,"x_min":0,"x_max":0,"o":"m 342 679 b 463 561 342 614 397 561 b 582 679 528 561 582 614 b 463 796 582 743 528 796 b 342 679 397 796 342 743 z m 342 163 b 463 44 342 99 397 44 b 582 163 528 44 582 99 b 463 279 582 226 528 279 b 342 163 397 279 342 226 z m 814 333 l 814 510 l 110 510 l 110 333 z "},"Ï":{"ha":442,"x_min":0,"x_max":0,"o":"m 340 0 l 340 983 l 101 983 l 101 0 z m 488 1181 b 372 1293 488 1243 435 1293 b 257 1181 307 1293 257 1240 b 372 1067 257 1118 307 1067 b 488 1181 435 1067 488 1117 z m 186 1181 b 69 1293 186 1243 133 1293 b -46 1181 6 1293 -46 1240 b 69 1067 -46 1118 6 1067 b 186 1181 133 1067 186 1117 z "},"Ģ":{"ha":1068,"x_min":0,"x_max":0,"o":"m 975 60 l 975 581 l 569 581 l 569 389 l 757 389 l 757 210 b 608 183 715 192 664 183 b 308 493 415 183 308 313 b 597 800 308 669 431 800 b 818 708 693 800 772 761 l 968 879 b 589 1010 886 958 743 1010 b 56 493 289 1010 56 808 b 596 -25 56 183 282 -25 b 975 60 747 -25 879 10 z m 703 -62 l 501 -62 l 408 -333 l 583 -333 z "},"Ü":{"ha":1025,"x_min":0,"x_max":0,"o":"m 935 371 l 935 983 l 697 983 l 697 390 b 513 188 697 285 647 188 b 328 390 379 188 328 285 l 328 983 l 92 983 l 92 371 b 511 -26 92 135 253 -26 b 935 371 768 -26 935 135 z m 781 1181 b 665 1293 781 1243 728 1293 b 550 1181 600 1293 550 1240 b 665 1067 550 1118 600 1067 b 781 1181 728 1067 781 1117 z m 479 1181 b 363 1293 479 1243 426 1293 b 247 1181 299 1293 247 1240 b 363 1067 247 1118 299 1067 b 479 1181 426 1067 479 1117 z "},"ą":{"ha":786,"x_min":0,"x_max":0,"o":"m 667 -272 l 622 -186 b 546 -214 599 -203 572 -214 b 494 -164 517 -214 494 -193 b 619 0 494 -115 550 -56 l 706 0 l 706 349 b 388 714 706 600 619 714 b 79 597 275 714 160 674 l 194 474 b 365 544 236 513 300 544 b 490 444 436 544 490 513 l 490 433 b 46 200 289 433 46 400 b 297 -17 46 38 188 -17 b 493 74 379 -17 458 17 l 497 74 l 497 3 b 350 -201 431 -43 350 -121 b 507 -328 350 -292 432 -328 b 667 -272 565 -328 624 -304 z m 497 278 b 354 136 497 192 446 136 b 256 207 308 136 256 154 b 468 301 256 289 368 301 l 497 301 z "},"å":{"ha":786,"x_min":0,"x_max":0,"o":"m 497 278 b 354 136 497 192 446 136 b 256 207 308 136 256 154 b 468 301 256 289 368 301 l 497 301 z m 194 474 b 365 544 236 513 300 544 b 490 444 436 544 490 513 l 490 433 b 46 200 289 433 46 400 b 297 -17 46 38 188 -17 b 493 74 379 -17 458 17 l 497 74 l 497 0 l 706 0 l 706 349 b 388 714 706 600 619 714 b 79 597 275 714 160 674 z m 550 922 b 399 1071 550 1007 482 1071 b 247 921 314 1071 247 1007 b 399 774 247 836 315 774 b 550 922 482 774 550 836 z m 481 922 b 399 842 481 876 444 842 b 317 921 353 842 317 876 b 399 1003 317 967 351 1003 b 481 922 444 1003 481 968 z "},"Ė":{"ha":843,"x_min":0,"x_max":0,"o":"m 788 0 l 788 203 l 331 203 l 331 407 l 739 407 l 739 597 l 331 597 l 331 782 l 763 782 l 763 983 l 101 983 l 101 0 z m 556 1179 b 431 1299 556 1246 500 1299 b 307 1179 361 1299 307 1243 b 431 1061 307 1115 361 1061 b 556 1179 500 1061 556 1113 z "},"Ŝ":{"ha":821,"x_min":0,"x_max":0,"o":"m 772 888 b 450 1008 686 967 561 1008 b 69 700 267 1008 69 918 b 321 418 69 522 196 458 b 525 278 450 376 525 353 b 389 171 525 199 461 171 b 176 275 311 171 224 215 l 21 117 b 389 -25 107 26 249 -25 b 765 303 583 -25 765 76 b 460 599 765 499 593 556 b 308 714 367 628 308 649 b 446 813 308 792 385 813 b 621 728 507 813 581 779 z m 719 1061 l 550 1261 l 344 1261 l 172 1061 l 350 1061 l 444 1174 l 539 1061 z "},"Ŷ":{"ha":929,"x_min":0,"x_max":0,"o":"m 957 983 l 679 983 l 469 619 l 260 983 l -28 983 l 342 417 l 342 0 l 579 0 l 579 417 z m 743 1061 l 574 1261 l 368 1261 l 196 1061 l 374 1061 l 468 1174 l 563 1061 z "},"Ț":{"ha":807,"x_min":0,"x_max":0,"o":"m 800 781 l 800 983 l 7 983 l 7 781 l 285 781 l 285 0 l 522 0 l 522 781 z m 507 -62 l 306 -62 l 213 -333 l 388 -333 z "},"Ň":{"ha":1097,"x_min":0,"x_max":0,"o":"m 996 0 l 996 983 l 765 983 l 771 342 l 767 342 l 372 983 l 101 983 l 101 0 l 332 0 l 326 643 l 331 643 l 726 0 z m 826 1261 l 649 1261 l 554 1149 l 460 1261 l 279 1261 l 451 1061 l 656 1061 z "},"Ñ":{"ha":1097,"x_min":0,"x_max":0,"o":"m 996 0 l 996 983 l 765 983 l 771 342 l 767 342 l 372 983 l 101 983 l 101 0 l 332 0 l 326 643 l 331 643 l 726 0 z m 811 1250 l 713 1250 b 654 1193 704 1217 689 1193 b 564 1221 629 1193 603 1203 b 453 1249 528 1238 492 1249 b 296 1068 351 1249 308 1164 l 396 1068 b 454 1124 404 1097 421 1124 b 542 1096 479 1124 504 1115 b 654 1067 578 1079 615 1067 b 811 1250 756 1067 800 1153 z "},"Č":{"ha":967,"x_min":0,"x_max":0,"o":"m 967 136 l 801 292 b 593 192 760 233 686 192 b 314 493 429 192 314 314 b 597 794 314 667 432 794 b 796 704 672 794 751 765 l 957 865 b 589 1010 875 960 726 1010 b 56 493 289 1010 56 808 b 585 -26 56 185 282 -26 b 967 136 750 -26 881 36 z m 867 1261 l 689 1261 l 594 1149 l 500 1261 l 319 1261 l 492 1061 l 696 1061 z "},"Ġ":{"ha":1068,"x_min":0,"x_max":0,"o":"m 975 60 l 975 581 l 569 581 l 569 389 l 757 389 l 757 210 b 608 183 715 192 664 183 b 308 493 415 183 308 313 b 597 800 308 669 431 800 b 818 708 693 800 772 761 l 968 879 b 589 1010 886 958 743 1010 b 56 493 289 1010 56 808 b 596 -25 56 183 282 -25 b 975 60 747 -25 879 10 z m 724 1179 b 599 1299 724 1246 668 1299 b 475 1179 529 1299 475 1243 b 599 1061 475 1115 529 1061 b 724 1179 668 1061 724 1113 z "},"Ŀ":{"ha":731,"x_min":0,"x_max":0,"o":"m 721 0 l 721 207 l 340 207 l 340 983 l 101 983 l 101 0 z m 664 607 b 539 726 664 674 608 726 b 415 607 469 726 415 671 b 539 489 415 543 469 489 b 664 607 608 489 664 540 z "},"Ħ":{"ha":1061,"x_min":0,"x_max":0,"o":"m 960 0 l 960 983 l 722 983 l 722 818 l 339 818 l 339 983 l 101 983 l 101 0 l 339 0 l 339 411 l 722 411 l 722 0 z m 339 611 l 339 694 l 722 694 l 722 611 z "},"ė":{"ha":828,"x_min":0,"x_max":0,"o":"m 272 425 b 429 557 278 496 342 557 b 565 425 519 557 565 497 z m 775 338 b 428 714 775 574 632 714 b 54 343 218 714 54 569 b 435 -22 54 110 226 -22 b 749 125 575 -22 683 31 l 590 225 b 438 153 560 183 510 153 b 272 283 356 153 279 207 l 774 283 b 775 338 775 300 775 319 z m 557 913 b 432 1032 557 979 501 1032 b 308 913 363 1032 308 976 b 432 794 308 849 363 794 b 557 913 501 794 557 846 z "},"Ć":{"ha":967,"x_min":0,"x_max":0,"o":"m 967 136 l 801 292 b 593 192 760 233 686 192 b 314 493 429 192 314 314 b 597 794 314 667 432 794 b 796 704 672 794 751 765 l 957 865 b 589 1010 875 960 726 1010 b 56 493 289 1010 56 808 b 585 -26 56 185 282 -26 b 967 136 750 -26 881 36 z m 832 1261 l 601 1261 l 457 1061 l 629 1061 z "},"∙":{"ha":417,"x_min":0,"x_max":0,"o":"m 349 404 b 210 540 349 481 285 540 b 68 403 132 540 68 478 b 210 268 68 326 133 268 b 349 404 285 268 349 328 z "},"Ì":{"ha":442,"x_min":0,"x_max":0,"o":"m 340 0 l 340 983 l 101 983 l 101 0 z m 340 1061 l 196 1261 l -35 1261 l 168 1061 z "},"ś":{"ha":656,"x_min":0,"x_max":0,"o":"m 621 617 b 343 714 553 681 446 714 b 56 482 211 714 56 647 b 257 281 56 351 161 303 b 394 201 351 258 394 244 b 313 142 394 157 350 142 b 143 219 246 142 183 175 l 15 85 b 317 -22 88 15 204 -22 b 613 214 458 -22 613 39 b 392 425 613 349 497 401 b 265 494 303 444 265 456 b 351 550 265 535 308 550 b 496 488 407 550 460 522 z m 589 994 l 358 994 l 214 794 l 386 794 z "},"ĕ":{"ha":828,"x_min":0,"x_max":0,"o":"m 272 425 b 429 557 278 496 342 557 b 565 425 519 557 565 497 z m 775 338 b 428 714 775 574 632 714 b 54 343 218 714 54 569 b 435 -22 54 110 226 -22 b 749 125 575 -22 683 31 l 590 225 b 438 153 560 183 510 153 b 272 283 356 153 279 207 l 774 283 b 775 338 775 300 775 319 z m 675 994 l 558 994 b 433 918 546 929 496 918 b 353 933 406 918 376 922 b 308 994 331 946 314 965 l 192 994 b 432 794 201 849 306 794 b 675 994 561 794 663 850 z "},"Ä":{"ha":1013,"x_min":0,"x_max":0,"o":"m 1032 0 l 624 983 l 393 983 l -19 0 l 239 0 l 311 193 l 692 193 l 768 0 z m 626 383 l 379 383 l 504 721 z m 775 1181 b 660 1293 775 1243 722 1293 b 544 1181 594 1293 544 1240 b 660 1067 544 1118 594 1067 b 775 1181 722 1067 775 1117 z m 474 1181 b 357 1293 474 1243 421 1293 b 242 1181 293 1293 242 1240 b 357 1067 242 1118 293 1067 b 474 1181 421 1067 474 1117 z "},"Ĺ":{"ha":731,"x_min":0,"x_max":0,"o":"m 721 0 l 721 207 l 340 207 l 340 983 l 101 983 l 101 0 z m 507 1261 l 276 1261 l 132 1061 l 304 1061 z "},"Ĥ":{"ha":1061,"x_min":0,"x_max":0,"o":"m 960 0 l 960 983 l 722 983 l 722 611 l 339 611 l 339 983 l 101 983 l 101 0 l 339 0 l 339 411 l 722 411 l 722 0 z m 808 1061 l 639 1261 l 433 1261 l 261 1061 l 439 1061 l 533 1174 l 628 1061 z "},"ð":{"ha":878,"x_min":0,"x_max":0,"o":"m 824 392 b 593 908 824 597 725 765 l 761 981 l 640 1079 l 483 1010 b 364 1110 458 1032 415 1071 l 188 1011 b 292 929 226 985 269 951 l 140 864 l 251 767 l 401 833 b 538 675 453 790 499 732 l 535 674 b 421 708 501 699 463 708 b 54 347 218 708 54 568 b 438 -22 54 121 226 -22 b 824 392 669 -22 824 136 z m 604 347 b 439 169 604 257 546 169 b 274 347 332 169 274 257 b 438 524 274 435 331 524 b 604 347 546 524 604 435 z "},"ċ":{"ha":699,"x_min":0,"x_max":0,"o":"m 697 621 b 440 714 643 676 539 714 b 54 346 225 714 54 571 b 442 -22 54 117 224 -22 b 697 67 543 -22 640 11 l 571 221 b 447 169 543 188 493 169 b 285 346 347 169 285 250 b 444 524 285 442 349 524 b 565 468 490 524 540 501 z m 569 913 b 444 1032 569 979 514 1032 b 321 913 375 1032 321 976 b 444 794 321 849 375 794 b 569 913 514 794 569 846 z "},"Õ":{"ha":1182,"x_min":0,"x_max":0,"o":"m 1126 496 b 590 1010 1126 811 899 1010 b 56 496 283 1010 56 811 b 590 -26 56 185 283 -26 b 1126 496 899 -26 1126 185 z m 872 496 b 590 190 872 318 756 190 b 310 496 425 190 310 318 b 590 796 310 668 424 796 b 872 496 757 796 872 668 z m 850 1250 l 751 1250 b 693 1193 743 1217 728 1193 b 603 1221 668 1193 642 1203 b 492 1249 567 1238 531 1249 b 335 1068 390 1249 347 1164 l 435 1068 b 493 1124 443 1097 460 1124 b 581 1096 518 1124 543 1115 b 693 1067 617 1079 654 1067 b 850 1250 794 1067 839 1153 z "},"ę":{"ha":828,"x_min":0,"x_max":0,"o":"m 603 -272 l 558 -186 b 482 -214 535 -203 508 -214 b 431 -164 453 -214 431 -193 b 542 -10 431 -118 479 -62 b 749 125 631 10 701 56 l 590 225 b 438 153 560 183 510 153 b 272 283 356 153 279 207 l 774 283 b 775 338 775 300 775 319 b 428 714 775 574 632 714 b 54 343 218 714 54 569 b 400 -21 54 122 207 -8 b 286 -201 343 -68 286 -133 b 443 -328 286 -292 368 -328 b 603 -272 501 -328 560 -304 z m 272 425 b 429 557 278 496 342 557 b 565 425 519 557 565 497 z "},"Î":{"ha":442,"x_min":0,"x_max":0,"o":"m 340 0 l 340 983 l 101 983 l 101 0 z m 493 1061 l 324 1261 l 118 1261 l -54 1061 l 124 1061 l 218 1174 l 313 1061 z "},"ĝ":{"ha":914,"x_min":0,"x_max":0,"o":"m 822 65 l 822 692 l 607 692 l 607 603 l 604 603 b 383 711 556 676 469 711 b 54 349 175 711 54 540 b 385 -7 54 157 175 -7 b 594 85 476 -7 551 29 l 599 85 l 599 43 b 403 -150 599 -72 536 -150 b 174 -62 325 -150 240 -121 l 60 -225 b 415 -333 153 -294 294 -333 b 822 65 661 -333 822 -206 z m 606 350 b 438 174 606 256 542 174 b 275 350 335 174 275 258 b 438 525 275 446 335 525 b 606 350 540 525 606 444 z m 718 794 l 549 994 l 343 994 l 171 794 l 349 794 l 443 907 l 538 794 z "},"®":{"ha":833,"x_min":0,"x_max":0,"o":"m 388 724 l 388 781 l 424 781 b 463 756 443 781 463 771 b 424 724 463 738 446 724 z m 610 507 l 525 654 b 592 757 568 671 592 708 b 424 876 592 850 503 876 l 265 876 l 265 507 l 388 507 l 388 638 l 410 638 l 471 507 z m 100 683 b 418 371 100 508 243 371 b 733 683 592 371 733 508 b 418 999 733 858 592 999 b 100 683 243 999 100 858 z m 150 683 b 418 950 150 831 269 950 b 683 683 565 950 683 831 b 418 417 683 538 565 417 b 150 683 269 417 150 538 z "},"Ě":{"ha":843,"x_min":0,"x_max":0,"o":"m 788 0 l 788 203 l 331 203 l 331 407 l 739 407 l 739 597 l 331 597 l 331 782 l 763 782 l 763 983 l 101 983 l 101 0 z m 706 1261 l 528 1261 l 433 1149 l 339 1261 l 158 1261 l 331 1061 l 535 1061 z "},"ř":{"ha":550,"x_min":0,"x_max":0,"o":"m 547 706 b 499 711 536 710 517 711 b 311 592 414 711 346 661 l 308 592 l 308 692 l 89 692 l 89 0 l 317 0 l 317 356 b 479 513 317 413 357 513 b 538 506 497 513 517 511 z m 590 994 l 413 994 l 318 882 l 224 994 l 43 994 l 215 794 l 419 794 z "},"Ĵ":{"ha":735,"x_min":0,"x_max":0,"o":"m 639 336 l 639 983 l 400 983 l 400 335 b 304 189 400 249 382 189 b 206 275 254 189 218 224 l -4 204 b 315 -26 32 69 150 -26 b 639 336 583 -26 639 181 z m 792 1061 l 622 1261 l 417 1261 l 244 1061 l 422 1061 l 517 1174 l 611 1061 z "},"Í":{"ha":442,"x_min":0,"x_max":0,"o":"m 340 0 l 340 983 l 101 983 l 101 0 z m 476 1261 l 246 1261 l 101 1061 l 274 1061 z "},"€":{"ha":897,"x_min":0,"x_max":0,"o":"m 788 204 b 611 161 740 176 679 161 b 382 300 500 161 407 221 l 640 300 l 688 443 l 353 443 b 351 490 351 458 351 478 b 354 542 351 510 351 525 l 713 542 l 761 686 l 393 686 b 618 825 426 776 524 825 b 783 793 678 825 743 814 l 851 968 b 625 1010 799 993 706 1010 b 163 686 399 1010 222 889 l 83 686 l 33 542 l 142 542 b 138 492 139 525 138 508 b 139 443 138 476 138 460 l 76 443 l 29 300 l 157 300 b 594 -26 206 114 351 -26 b 839 28 697 -26 786 -3 z "},"³":{"ha":583,"x_min":0,"x_max":0,"o":"m 526 561 b 433 700 526 626 493 679 b 513 832 481 724 513 769 b 300 1000 513 949 410 1000 b 72 836 200 1000 103 944 l 218 801 b 289 868 226 842 256 868 b 353 815 326 868 353 847 b 263 751 353 767 313 751 l 213 751 l 213 635 l 258 635 b 367 569 313 635 367 624 b 289 506 367 522 326 506 b 200 579 242 506 213 539 l 54 540 b 299 371 89 419 189 371 b 526 561 408 371 526 428 z "},"ÿ":{"ha":788,"x_min":0,"x_max":0,"o":"m 789 692 l 547 692 l 410 247 l 406 247 l 251 692 l -1 692 l 288 11 l 265 -46 b 149 -139 243 -106 219 -139 b 75 -126 126 -139 97 -133 l 50 -318 b 175 -333 83 -326 132 -333 b 479 -104 349 -333 424 -249 z m 674 914 b 558 1026 674 976 621 1026 b 443 914 493 1026 443 974 b 558 800 443 851 493 800 b 674 914 621 800 674 850 z m 372 914 b 256 1026 372 976 319 1026 b 140 914 192 1026 140 974 b 256 800 140 851 192 800 b 372 914 319 800 372 850 z "},"Ș":{"ha":821,"x_min":0,"x_max":0,"o":"m 772 888 b 450 1008 686 967 561 1008 b 69 700 267 1008 69 918 b 321 418 69 522 196 458 b 525 278 450 376 525 353 b 389 171 525 199 461 171 b 176 275 311 171 224 215 l 21 117 b 389 -25 107 26 249 -25 b 765 303 583 -25 765 76 b 460 599 765 499 593 556 b 308 714 367 628 308 649 b 446 813 308 792 385 813 b 621 728 507 813 581 779 z m 506 -62 l 304 -62 l 211 -333 l 386 -333 z "},"č":{"ha":699,"x_min":0,"x_max":0,"o":"m 697 621 b 440 714 643 676 539 714 b 54 346 225 714 54 571 b 442 -22 54 117 224 -22 b 697 67 543 -22 640 11 l 571 221 b 447 169 543 188 493 169 b 285 346 347 169 285 250 b 444 524 285 442 349 524 b 565 468 490 524 540 501 z m 714 994 l 536 994 l 442 882 l 347 994 l 167 994 l 339 794 l 543 794 z "},"Į":{"ha":442,"x_min":0,"x_max":0,"o":"m 372 -272 l 328 -186 b 251 -214 304 -203 278 -214 b 200 -164 222 -214 200 -193 b 325 0 200 -115 256 -56 l 340 0 l 340 983 l 101 983 l 101 0 l 197 0 b 56 -201 132 -47 56 -122 b 213 -328 56 -292 138 -328 b 372 -272 271 -328 329 -304 z "},"ā":{"ha":786,"x_min":0,"x_max":0,"o":"m 497 278 b 354 136 497 192 446 136 b 256 207 308 136 256 154 b 468 301 256 289 368 301 l 497 301 z m 194 474 b 365 544 236 513 300 544 b 490 444 436 544 490 513 l 490 433 b 46 200 289 433 46 400 b 297 -17 46 38 188 -17 b 493 74 379 -17 458 17 l 497 74 l 497 0 l 706 0 l 706 349 b 388 714 706 600 619 714 b 79 597 275 714 160 674 z m 631 835 l 631 954 l 164 954 l 164 835 z "},"đ":{"ha":914,"x_min":0,"x_max":0,"o":"m 822 0 l 822 792 l 886 792 l 886 915 l 822 915 l 822 1050 l 594 1050 l 594 915 l 388 915 l 388 792 l 594 792 l 594 618 l 592 618 b 381 711 553 664 482 711 b 54 349 179 711 54 542 b 383 -19 54 156 175 -19 b 610 90 475 -19 565 21 l 613 90 l 613 0 z m 604 347 b 438 169 604 257 540 169 b 274 349 329 169 274 258 b 438 525 274 438 329 525 b 604 347 540 525 604 435 z "},"Ĳ":{"ha":1163,"x_min":0,"x_max":0,"o":"m 340 0 l 340 983 l 101 983 l 101 0 z m 1067 336 l 1067 983 l 828 983 l 828 335 b 732 189 828 249 810 189 b 633 275 682 189 646 224 l 424 204 b 743 -26 460 69 578 -26 b 1067 336 1011 -26 1067 181 z "},"ã":{"ha":786,"x_min":0,"x_max":0,"o":"m 497 278 b 354 136 497 192 446 136 b 256 207 308 136 256 154 b 468 301 256 289 368 301 l 497 301 z m 194 474 b 365 544 236 513 300 544 b 490 444 436 544 490 513 l 490 433 b 46 200 289 433 46 400 b 297 -17 46 38 188 -17 b 493 74 379 -17 458 17 l 497 74 l 497 0 l 706 0 l 706 349 b 388 714 706 600 619 714 b 79 597 275 714 160 674 z m 657 983 l 558 983 b 500 926 550 950 535 926 b 410 954 475 926 449 936 b 299 982 374 971 338 982 b 142 801 197 982 154 897 l 242 801 b 300 857 250 831 267 857 b 388 829 325 857 350 849 b 500 800 424 813 461 800 b 657 983 601 800 646 886 z "},"Ķ":{"ha":988,"x_min":0,"x_max":0,"o":"m 1013 0 l 564 531 l 988 983 l 690 983 l 339 583 l 335 583 l 335 983 l 101 983 l 101 0 l 335 0 l 335 453 l 338 453 l 703 0 z m 615 -62 l 414 -62 l 321 -333 l 496 -333 z "},"Ņ":{"ha":1097,"x_min":0,"x_max":0,"o":"m 996 0 l 996 983 l 765 983 l 771 342 l 767 342 l 372 983 l 101 983 l 101 0 l 332 0 l 326 643 l 331 643 l 726 0 z m 646 -62 l 444 -62 l 351 -333 l 526 -333 z "},"ç":{"ha":699,"x_min":0,"x_max":0,"o":"m 597 -197 b 454 -82 597 -103 521 -82 b 429 -83 446 -82 439 -82 l 478 -21 b 697 67 565 -14 647 18 l 571 221 b 447 169 543 188 493 169 b 285 346 347 169 285 250 b 444 524 285 442 349 524 b 565 468 490 524 540 501 l 697 621 b 440 714 643 676 539 714 b 54 346 225 714 54 571 b 368 -17 54 143 186 11 l 288 -124 l 331 -164 b 386 -156 347 -158 369 -156 b 451 -196 414 -156 451 -162 b 382 -242 451 -233 411 -242 b 265 -215 344 -242 300 -232 l 228 -299 b 393 -333 271 -319 336 -333 b 597 -197 481 -333 597 -304 z "},"Ĩ":{"ha":442,"x_min":0,"x_max":0,"o":"m 340 0 l 340 983 l 101 983 l 101 0 z m 479 1250 l 381 1250 b 322 1193 372 1217 357 1193 b 232 1221 297 1193 271 1203 b 121 1249 196 1238 160 1249 b -36 1068 19 1249 -24 1164 l 64 1068 b 122 1124 72 1097 89 1124 b 210 1096 147 1124 172 1115 b 322 1067 246 1079 283 1067 b 479 1250 424 1067 468 1153 z "},"þ":{"ha":915,"x_min":0,"x_max":0,"o":"m 860 349 b 533 711 860 542 735 711 b 322 618 431 711 361 664 l 318 618 l 318 1050 l 92 1050 l 92 -333 l 318 -333 l 318 78 l 321 78 b 531 -19 361 18 446 -19 b 860 349 740 -19 860 156 z m 640 349 b 476 169 640 258 585 169 b 310 347 374 169 310 257 b 476 525 310 435 374 525 b 640 349 585 525 640 438 z "},"¦":{"ha":335,"x_min":0,"x_max":0,"o":"m 258 435 l 258 938 l 76 938 l 76 435 z m 258 -243 l 258 260 l 76 260 l 76 -243 z "},"Ę":{"ha":843,"x_min":0,"x_max":0,"o":"m 811 -272 l 767 -186 b 690 -214 743 -203 717 -214 b 639 -164 661 -214 639 -193 b 764 0 639 -115 694 -56 l 788 0 l 788 203 l 331 203 l 331 407 l 739 407 l 739 597 l 331 597 l 331 782 l 763 782 l 763 983 l 101 983 l 101 0 l 636 0 b 494 -201 571 -47 494 -122 b 651 -328 494 -292 576 -328 b 811 -272 710 -328 768 -304 z "},"é":{"ha":828,"x_min":0,"x_max":0,"o":"m 272 425 b 429 557 278 496 342 557 b 565 425 519 557 565 497 z m 775 338 b 428 714 775 574 632 714 b 54 343 218 714 54 569 b 435 -22 54 110 226 -22 b 749 125 575 -22 683 31 l 590 225 b 438 153 560 183 510 153 b 272 283 356 153 279 207 l 774 283 b 775 338 775 300 775 319 z m 663 994 l 432 994 l 288 794 l 460 794 z "},"Ð":{"ha":1075,"x_min":0,"x_max":0,"o":"m 1017 494 b 482 983 1017 844 761 983 l 103 983 l 103 578 l 18 578 l 18 429 l 103 429 l 103 0 l 481 0 b 1017 494 739 0 1017 154 z m 774 494 b 438 208 774 290 631 208 l 335 208 l 335 429 l 586 429 l 586 578 l 335 578 l 335 776 l 460 776 b 774 494 644 776 774 689 z "},"Ļ":{"ha":731,"x_min":0,"x_max":0,"o":"m 721 0 l 721 207 l 340 207 l 340 983 l 101 983 l 101 0 z m 508 -62 l 307 -62 l 214 -333 l 389 -333 z "},"℮":{"ha":694,"x_min":0,"x_max":0,"o":"m 218 360 l 218 108 b 419 26 272 54 339 26 b 688 193 535 26 618 76 l 736 164 b 419 -24 651 32 565 -24 b 61 360 201 -24 61 146 b 419 743 61 575 201 743 b 779 360 633 743 778 585 z m 622 410 l 622 611 b 418 694 564 667 496 694 b 218 611 339 694 272 665 l 218 410 z "},"ë":{"ha":828,"x_min":0,"x_max":0,"o":"m 272 425 b 429 557 278 496 342 557 b 565 425 519 557 565 497 z m 775 338 b 428 714 775 574 632 714 b 54 343 218 714 54 569 b 435 -22 54 110 226 -22 b 749 125 575 -22 683 31 l 590 225 b 438 153 560 183 510 153 b 272 283 356 153 279 207 l 774 283 b 775 338 775 300 775 319 z m 701 914 b 586 1026 701 976 649 1026 b 471 914 521 1026 471 974 b 586 800 471 851 521 800 b 701 914 649 800 701 850 z m 400 914 b 283 1026 400 976 347 1026 b 168 914 219 1026 168 974 b 283 800 168 851 219 800 b 400 914 347 800 400 850 z "},"ê":{"ha":828,"x_min":0,"x_max":0,"o":"m 272 425 b 429 557 278 496 342 557 b 565 425 519 557 565 497 z m 775 338 b 428 714 775 574 632 714 b 54 343 218 714 54 569 b 435 -22 54 110 226 -22 b 749 125 575 -22 683 31 l 590 225 b 438 153 560 183 510 153 b 272 283 356 153 279 207 l 774 283 b 775 338 775 300 775 319 z m 710 794 l 540 994 l 335 994 l 163 794 l 340 794 l 435 907 l 529 794 z "},"ē":{"ha":828,"x_min":0,"x_max":0,"o":"m 272 425 b 429 557 278 496 342 557 b 565 425 519 557 565 497 z m 775 338 b 428 714 775 574 632 714 b 54 343 218 714 54 569 b 435 -22 54 110 226 -22 b 749 125 575 -22 683 31 l 590 225 b 438 153 560 183 510 153 b 272 283 356 153 279 207 l 774 283 b 775 338 775 300 775 319 z m 667 835 l 667 954 l 200 954 l 200 835 z "},"ĉ":{"ha":699,"x_min":0,"x_max":0,"o":"m 697 621 b 440 714 643 676 539 714 b 54 346 225 714 54 571 b 442 -22 54 117 224 -22 b 697 67 543 -22 640 11 l 571 221 b 447 169 543 188 493 169 b 285 346 347 169 285 250 b 444 524 285 442 349 524 b 565 468 490 524 540 501 z m 717 794 l 547 994 l 342 994 l 169 794 l 347 794 l 442 907 l 536 794 z "},"ŷ":{"ha":788,"x_min":0,"x_max":0,"o":"m 789 692 l 547 692 l 410 247 l 406 247 l 251 692 l -1 692 l 288 11 l 265 -46 b 149 -139 243 -106 219 -139 b 75 -126 126 -139 97 -133 l 50 -318 b 175 -333 83 -326 132 -333 b 479 -104 349 -333 424 -249 z m 679 794 l 510 994 l 304 994 l 132 794 l 310 794 l 404 907 l 499 794 z "},"Ń":{"ha":1097,"x_min":0,"x_max":0,"o":"m 996 0 l 996 983 l 765 983 l 771 342 l 767 342 l 372 983 l 101 983 l 101 0 l 332 0 l 326 643 l 331 643 l 726 0 z m 817 1261 l 586 1261 l 442 1061 l 614 1061 z "},"ŗ":{"ha":550,"x_min":0,"x_max":0,"o":"m 547 706 b 499 711 536 710 517 711 b 311 592 414 711 346 661 l 308 592 l 308 692 l 89 692 l 89 0 l 317 0 l 317 356 b 479 513 317 413 357 513 b 538 506 497 513 517 511 z m 311 -64 l 110 -64 l 17 -335 l 192 -335 z "},"è":{"ha":828,"x_min":0,"x_max":0,"o":"m 272 425 b 429 557 278 496 342 557 b 565 425 519 557 565 497 z m 775 338 b 428 714 775 574 632 714 b 54 343 218 714 54 569 b 435 -22 54 110 226 -22 b 749 125 575 -22 683 31 l 590 225 b 438 153 560 183 510 153 b 272 283 356 153 279 207 l 774 283 b 775 338 775 300 775 319 z m 558 794 l 414 994 l 183 994 l 386 794 z "},"ţ":{"ha":517,"x_min":0,"x_max":0,"o":"m 499 521 l 499 692 l 336 692 l 336 874 l 113 874 l 113 692 l 3 692 l 3 521 l 114 521 l 114 229 b 360 -17 114 82 175 -17 b 492 4 408 -17 461 -7 l 489 171 b 422 160 472 164 444 160 b 336 257 357 160 336 193 l 336 521 z m 400 -62 l 199 -62 l 106 -333 l 281 -333 z "},"ď":{"ha":1099,"x_min":0,"x_max":0,"o":"m 822 0 l 822 1050 l 594 1050 l 594 618 l 592 618 b 381 711 553 664 482 711 b 54 349 179 711 54 542 b 383 -19 54 156 175 -19 b 610 90 475 -19 565 21 l 613 90 l 613 0 z m 604 347 b 438 169 604 257 540 169 b 274 349 329 169 274 258 b 438 525 274 438 329 525 b 604 347 540 525 604 435 z m 1156 983 l 954 983 l 861 713 l 1036 713 z "},"ğ":{"ha":914,"x_min":0,"x_max":0,"o":"m 822 65 l 822 692 l 607 692 l 607 603 l 604 603 b 383 711 556 676 469 711 b 54 349 175 711 54 540 b 385 -7 54 157 175 -7 b 594 85 476 -7 551 29 l 599 85 l 599 43 b 403 -150 599 -72 536 -150 b 174 -62 325 -150 240 -121 l 60 -225 b 415 -333 153 -294 294 -333 b 822 65 661 -333 822 -206 z m 606 350 b 438 174 606 256 542 174 b 275 350 335 174 275 258 b 438 525 275 446 335 525 b 606 350 540 525 606 444 z m 693 994 l 576 994 b 451 918 564 929 514 918 b 371 933 424 918 394 922 b 326 994 349 946 332 965 l 210 994 b 450 794 219 849 324 794 b 693 994 579 794 681 850 z "},"°":{"ha":578,"x_min":0,"x_max":0,"o":"m 522 775 b 289 1007 522 906 419 1007 b 56 775 158 1007 56 906 b 289 542 56 644 158 542 b 522 775 419 542 522 644 z m 411 775 b 289 653 411 707 357 653 b 167 775 221 653 167 707 b 289 897 167 842 221 897 b 411 775 357 897 411 842 z "},"ć":{"ha":699,"x_min":0,"x_max":0,"o":"m 697 621 b 440 714 643 676 539 714 b 54 346 225 714 54 571 b 442 -22 54 117 224 -22 b 697 67 543 -22 640 11 l 571 221 b 447 169 543 188 493 169 b 285 346 347 169 285 250 b 444 524 285 442 349 524 b 565 468 490 524 540 501 z m 699 994 l 468 994 l 324 794 l 496 794 z "},"©":{"ha":1111,"x_min":0,"x_max":0,"o":"m 1083 490 b 557 1014 1083 782 847 1014 b 28 490 265 1014 28 782 b 557 -31 28 200 265 -31 b 1083 490 847 -31 1083 200 z m 1000 490 b 554 47 1000 246 799 47 b 111 490 308 47 111 246 b 557 936 111 736 311 936 b 1000 490 801 936 1000 736 z m 813 708 b 582 807 763 771 674 807 b 253 489 403 807 253 686 b 582 169 253 285 401 169 b 811 257 674 169 758 201 l 711 363 b 589 313 683 331 636 313 b 422 490 479 313 422 401 b 581 665 422 579 478 665 b 706 611 631 665 679 644 z "},"ģ":{"ha":914,"x_min":0,"x_max":0,"o":"m 822 65 l 822 692 l 607 692 l 607 603 l 604 603 b 383 711 556 676 469 711 b 54 349 175 711 54 540 b 385 -7 54 157 175 -7 b 594 85 476 -7 551 29 l 599 85 l 599 43 b 403 -150 599 -72 536 -150 b 174 -62 325 -150 240 -121 l 60 -225 b 415 -333 153 -294 294 -333 b 822 65 661 -333 822 -206 z m 606 350 b 438 174 606 256 542 174 b 275 350 335 174 275 258 b 438 525 275 446 335 525 b 606 350 540 525 606 444 z m 343 794 l 544 794 l 638 1065 l 463 1065 z "}," ":{"ha":347,"x_min":0,"x_max":0,"o":""},"\u0000":{"ha":694,"x_min":0,"x_max":0,"o":""}}}
